<?xml version="1.0" standalone="no"?>
<!DOCTYPE svg PUBLIC "-//W3C//DTD SVG 1.1//EN" "http://www.w3.org/Graphics/SVG/1.1/DTD/svg11.dtd" >
<svg xmlns="http://www.w3.org/2000/svg">
<metadata></metadata>
<defs>
<font id="lugatyperegular" horiz-adv-x="1085" >
<font-face units-per-em="2048" ascent="1638" descent="-410" />
<missing-glyph horiz-adv-x="409" />
<glyph unicode=" "  horiz-adv-x="409" />
<glyph unicode="&#x09;" horiz-adv-x="409" />
<glyph unicode="&#xa0;" horiz-adv-x="409" />
<glyph unicode="!" horiz-adv-x="372" d="M82 1434h209l-37 -1086h-135zM98 0v168h176v-168h-176z" />
<glyph unicode="&#x22;" horiz-adv-x="466" d="M0 1434h197l-37 -367h-123zM270 1434h197l-37 -367h-123z" />
<glyph unicode="#" horiz-adv-x="1363" d="M20 369v159h269l96 377h-297v160h338l96 369h168l-96 -369h311l96 369h168l-96 -369h230v-160h-271l-96 -377h299v-159h-340l-94 -369h-168l94 369h-311l-94 -369h-168l94 369h-228zM457 528h311l96 377h-311z" />
<glyph unicode="$" horiz-adv-x="872" d="M82 940q0 109 55 199t150 151v164h178v-90q74 18 156 18h161l-96 -473h-190l63 308q-118 -17 -199 -81.5t-81 -172.5q0 -37 18 -72t53 -67.5t66.5 -55t79.5 -53.5t77.5 -51t70 -54t63 -65t39 -74t16.5 -90q0 -117 -77 -198t-200 -115v-113h-178v92q-100 0 -178 16v164 q54 -10 170 -10q258 0 258 166q0 23 -11.5 45.5t-25.5 39t-45 40.5t-49.5 36t-58.5 38q-50 32 -81 54t-74.5 59t-68 70.5t-43 79.5t-18.5 95z" />
<glyph unicode="%" horiz-adv-x="1384" d="M61 1051v49q0 165 66.5 259.5t200.5 94.5q132 0 198 -94.5t66 -259.5v-49q0 -163 -66 -258t-198 -95q-133 0 -200 95t-67 258zM178 0l840 1434h188l-839 -1434h-189zM223 1063q0 -246 105 -246q102 0 102 246v24q0 246 -102 246q-105 0 -105 -246v-24zM793 334v49 q0 163 66 257.5t198 94.5q133 0 199.5 -94.5t66.5 -257.5v-49q0 -165 -66.5 -259.5t-199.5 -94.5q-132 0 -198 94.5t-66 259.5zM954 346q0 -246 103 -246q104 0 104 246v25q0 245 -104 245q-103 0 -103 -245v-25z" />
<glyph unicode="&#x26;" horiz-adv-x="1177" d="M72 975q0 106 46 198t123.5 155t181 98.5t216.5 35.5h162l-101 -512h-182l68 350q-86 -7 -158 -42t-119 -102.5t-47 -156.5q0 -105 86 -178t225 -73h25v-160q-147 0 -229 -65t-82 -181q0 -100 62 -151.5t167 -51.5q99 0 171.5 71.5t72.5 178.5v375h403v-150h-227v-329 q0 -71 23 -103t73 -32q62 0 117 10v-160q-82 -20 -184 -20q-74 0 -126 51t-71 139q-107 -190 -350 -190q-137 0 -237.5 98.5t-100.5 245.5q0 111 70 198t182 140q-116 39 -188 117.5t-72 195.5z" />
<glyph unicode="'" horiz-adv-x="196" d="M0 1434h197l-37 -367h-123z" />
<glyph unicode="(" horiz-adv-x="626" d="M143 563q0 247 84.5 481.5t214.5 409.5l113 -92q-104 -167 -163.5 -380.5t-59.5 -418.5t59.5 -418.5t163.5 -380.5l-113 -92q-130 175 -214.5 409.5t-84.5 481.5z" />
<glyph unicode=")" horiz-adv-x="626" d="M72 -236q104 167 163.5 380.5t59.5 418.5h188q0 -247 -84.5 -481.5t-214.5 -409.5zM72 1362l112 92q130 -175 214.5 -409.5t84.5 -481.5h-188q0 205 -59.5 418.5t-163.5 380.5z" />
<glyph unicode="*" horiz-adv-x="854" d="M43 1096l49 151l273 -106l-19 293h162l-19 -293l275 108l47 -151l-283 -76l187 -225l-129 -92l-158 245l-158 -248l-129 95l187 225z" />
<glyph unicode="+" horiz-adv-x="985" d="M82 524v181h319v319h181v-319h321v-181h-321v-321h-181v321h-319z" />
<glyph unicode="," horiz-adv-x="278" d="M0 -258l72 426h176l-92 -426h-156z" />
<glyph unicode="-" horiz-adv-x="565" d="M72 467v180h422v-180h-422z" />
<glyph unicode="." horiz-adv-x="278" d="M61 0v168h177v-168h-177z" />
<glyph unicode="/" horiz-adv-x="731" d="M41 0l512 1434h178l-512 -1434h-178z" />
<glyph unicode="0" horiz-adv-x="1040" d="M82 659v115q0 155 25.5 279t78 216.5t137 142.5t197.5 50t197.5 -50t137 -142.5t78 -216.5t25.5 -279v-115q0 -155 -25.5 -279t-78 -216.5t-137 -142.5t-197.5 -50t-197.5 50t-137 142.5t-78 216.5t-25.5 279zM287 686q0 -127 11.5 -223t38 -171t72.5 -114t111 -39 t111.5 39t72.5 114t38 171t12 223v62q0 127 -12 223t-38 170.5t-72.5 113.5t-111.5 39t-111 -39t-72.5 -113.5t-38 -170.5t-11.5 -223v-62z" />
<glyph unicode="1" horiz-adv-x="696" d="M51 1192v139l336 103h96v-1274h193v-160h-604v160h213v1083z" />
<glyph unicode="2" horiz-adv-x="915" d="M82 0v201q567 549 567 854q0 108 -72.5 178t-195.5 70q-42 0 -100 -15v-336h-183v461q153 49 334 49q198 0 310 -105t112 -263q0 -63 -17 -130t-44.5 -127.5t-72.5 -130t-89 -126.5t-108.5 -128.5t-115.5 -124.5t-124 -126h358v164h174v-365h-733z" />
<glyph unicode="3" horiz-adv-x="940" d="M82 0l72 365h182l-43 -222h18q148 0 238 77t90 216q0 219 -260 219h-33v107l268 471h-338v-281h-182v482h764v-82l-309 -539q133 -35 214 -133.5t81 -239.5q0 -91 -28.5 -168t-77.5 -131t-114.5 -92.5t-139 -57t-150.5 -18.5q-104 0 -252 27z" />
<glyph unicode="4" horiz-adv-x="927" d="M41 348v227l485 859h219v-926h173v-160h-173v-190h132v-158h-459v158h129v190h-506zM182 508h365v666z" />
<glyph unicode="5" horiz-adv-x="915" d="M72 0l71 365h183l-43 -222h18q148 0 237 76.5t89 216.5q0 219 -260 219h-226l47 779h474v86h174v-287h-484l-22 -402h71q187 0 310 -107t123 -284q0 -91 -28.5 -168t-77.5 -131t-114.5 -92.5t-139 -57t-150.5 -18.5q-104 0 -252 27z" />
<glyph unicode="6" horiz-adv-x="1007" d="M82 537v24q0 262 76 466t218.5 319.5t328.5 115.5q143 0 200 -28l-71 -381h-183l43 239q-157 0 -265.5 -146t-135.5 -374q102 45 209 45q116 0 211 -47t154 -142.5t59 -224.5q0 -118 -45 -214.5t-139 -157t-222 -60.5q-107 0 -192 45t-138 123.5t-80.5 180t-27.5 217.5z M287 616q3 -229 62 -353t190 -124q88 0 137 73t49 173q0 142 -69 206t-201 64q-85 0 -168 -39z" />
<glyph unicode="7" horiz-adv-x="843" d="M82 952v482h782l-286 -813h149v-160h-207l-162 -461h-198l454 1233h-350v-281h-182z" />
<glyph unicode="8" horiz-adv-x="987" d="M82 350q0 104 64 202.5t169 176.5q-209 133 -209 358q0 97 44 181.5t132 139t201 54.5q177 0 271 -102t94 -270q0 -95 -49.5 -187t-116.5 -151q39 -26 66.5 -47.5t59.5 -56t51.5 -71t32.5 -89t13 -113.5q0 -165 -124 -284.5t-298 -119.5q-184 0 -292.5 109.5 t-108.5 269.5zM274 369q0 -104 55.5 -167t153.5 -63q104 0 167 64t63 166q0 151 -256 286q-88 -74 -135.5 -140.5t-47.5 -145.5zM301 1114q0 -169 238 -287q52 51 84 126.5t32 140.5q0 95 -42.5 147.5t-129.5 52.5q-81 0 -131.5 -50.5t-50.5 -129.5z" />
<glyph unicode="9" horiz-adv-x="1007" d="M82 1030q0 88 26.5 165.5t76 137t127.5 94.5t175 35q112 0 197.5 -44t137.5 -122t78 -178.5t26 -220.5v-25q0 -262 -76 -466t-218.5 -319.5t-328.5 -115.5q-53 0 -113 7.5t-88 21.5l72 381h182l-43 -240q105 0 191 68t139 185t70 265q-100 -43 -207 -43q-116 0 -211 47 t-154 142.5t-59 224.5zM283 1049q0 -143 69 -207t201 -64q77 0 168 37q-2 112 -15.5 197.5t-42.5 150t-77.5 98t-116.5 33.5q-88 0 -137 -72.5t-49 -172.5z" />
<glyph unicode=":" horiz-adv-x="278" d="M61 0v168h177v-168h-177zM61 858v168h177v-168h-177z" />
<glyph unicode=";" horiz-adv-x="288" d="M0 -258l72 426h176l-92 -426h-156zM61 858v168h177v-168h-177z" />
<glyph unicode="&#x3c;" horiz-adv-x="997" d="M82 549v133l758 365l75 -164l-577 -269l577 -266l-75 -164z" />
<glyph unicode="=" horiz-adv-x="985" d="M82 324v180h821v-180h-821zM82 725v180h821v-180h-821z" />
<glyph unicode="&#x3e;" horiz-adv-x="997" d="M82 348l577 268l-577 267l76 164l757 -365v-133l-757 -365z" />
<glyph unicode="?" horiz-adv-x="735" d="M78 932v502h110q243 0 394 -99t151 -262q0 -73 -36.5 -140t-88 -116.5t-103 -93.5t-88 -88t-36.5 -82q0 -33 24.5 -51.5t65.5 -18.5l-22 -145q-123 0 -183.5 55.5t-60.5 134.5q0 64 34.5 125t83.5 109t98 95t83.5 102.5t34.5 111.5q0 64 -43 107.5t-102.5 62t-133.5 21.5 v-330h-182zM272 0v168h177v-168h-177z" />
<glyph unicode="@" horiz-adv-x="1413" d="M41 420q0 133 33.5 259.5t97 232.5t149 186.5t196 126t231.5 45.5q186 0 330 -111t219 -294t75 -404q0 -208 -95 -344.5t-243 -136.5q-160 0 -231 153q-40 -71 -97.5 -112t-127.5 -41q-116 0 -177 100t-61 262v25q0 94 21 185t61 168t94 136.5t123.5 93t144.5 33.5h195 v-713q0 -64 25 -102.5t69 -38.5q50 0 81.5 48t43.5 119t12 165q0 184 -53 330.5t-159 233.5t-250 87q-95 0 -181 -37.5t-151.5 -103.5t-114 -153t-73.5 -189.5t-25 -208.5q0 -294 142.5 -451t402.5 -157q232 0 397 112l49 -141q-209 -129 -446 -129q-331 0 -519 202 t-188 564zM516 365q0 -215 115 -215q76 0 121.5 68.5t50.5 150.5v465h-19q-80 0 -142.5 -68t-94 -174t-31.5 -227z" />
<glyph unicode="A" horiz-adv-x="1050" d="M-4 0v160h129l223 1114h-98v160h420l258 -1274h127v-160h-434v160h96l-49 270h-306l-47 -270h107v-160h-426zM391 590h248l-121 659h-8z" />
<glyph unicode="B" horiz-adv-x="1067" d="M61 0v160h132v1114h-132v160h449q92 0 171 -20.5t140.5 -61.5t97 -108t35.5 -154q0 -113 -61 -200t-168 -138q115 -34 182.5 -114t67.5 -206q0 -107 -45.5 -190t-127.5 -135.5t-191 -79.5t-240 -27h-310zM391 160q178 8 277.5 78t99.5 200q0 97 -73.5 149t-196.5 52h-107 v-479zM391 799h60q141 0 219 76.5t78 195.5q0 99 -76.5 151t-210.5 52h-70v-475z" />
<glyph unicode="C" horiz-adv-x="923" d="M84 598v61q0 155 47 299.5t131 256.5t212.5 179.5t281.5 67.5h129l-101 -512h-182l66 350q-116 -13 -204 -106.5t-131.5 -230t-43.5 -291.5v-47q0 -225 106.5 -349t290.5 -124q45 0 113 10v-170q-87 -19 -160 -19q-243 0 -399 169.5t-156 455.5z" />
<glyph unicode="D" horiz-adv-x="1114" d="M61 0v160h132v1114h-132v160h422q257 0 403 -161t146 -444v-102q0 -153 -45 -287t-125 -231t-196 -153t-252 -56h-353zM391 160h23q121 0 216 80t146 215t51 299v49q0 220 -91.5 345.5t-252.5 125.5h-92v-1114z" />
<glyph unicode="E" horiz-adv-x="1003" d="M61 0v160h132v1114h-132v160h875l-94 -484h-172l51 324h-330v-490h309v-159h-309v-465h367v246h174v-406h-871z" />
<glyph unicode="F" horiz-adv-x="931" d="M61 0v160h132v1114h-132v160h871l-94 -484h-183l62 324h-326v-500h324v-160h-324v-454h152v-160h-482z" />
<glyph unicode="G" horiz-adv-x="1015" d="M82 596v102q0 211 86.5 385.5t242.5 276.5t351 102h162l-101 -512h-182l66 350q-190 -15 -305 -189t-115 -439v-49q0 -223 87 -351.5t240 -128.5q44 0 109 19v334h-213v159h412v-655h-113l-14 78q-38 -41 -106.5 -73t-133.5 -32q-130 0 -237.5 78t-171.5 221.5t-64 323.5 z" />
<glyph unicode="H" horiz-adv-x="1169" d="M61 0v160h132v1114h-132v160h461v-160h-131v-459h387v459h-131v160h461v-160h-131v-1114h131v-160h-461v160h131v495h-387v-495h131v-160h-461z" />
<glyph unicode="I" horiz-adv-x="604" d="M72 0v160h131v1114h-131v160h460v-160h-131v-1114h131v-160h-460z" />
<glyph unicode="J" horiz-adv-x="743" d="M-106 -352l100 512h182l-67 -350q72 9 123 55t78.5 124.5t39.5 173.5t12 218v893h-151v160h481v-160h-131v-920q0 -208 -56.5 -365.5t-172 -249t-277.5 -91.5h-161z" />
<glyph unicode="K" horiz-adv-x="1126" d="M61 0v160h132v1114h-132v160h457v-160h-127v-1114h131v-160h-461zM461 653v103q0 194 65.5 350t192.5 248t295 92q46 0 82 -8l-97 -488h-182l55 293q-110 -23 -176.5 -157t-66.5 -314v-55h135l186 -557h152v-160h-309l-218 653h-114z" />
<glyph unicode="L" horiz-adv-x="935" d="M61 0v160h132v1114h-132v160h461v-160h-131v-1114h350v246h174v-406h-854z" />
<glyph unicode="M" horiz-adv-x="1437" d="M61 0v160h132v1114h-132v160h465l193 -846h8l186 846h463v-160h-131v-1114h131v-160h-456v160h131v1085h-9l-254 -1020h-157l-254 1020h-8v-1085h131v-160h-439z" />
<glyph unicode="N" horiz-adv-x="1236" d="M61 0v160h132v1114h-132v160h414l395 -1164h9v1004h-131v160h438v-160h-131v-1274h-283l-395 1163h-8v-1003h131v-160h-439z" />
<glyph unicode="O" d="M82 666v102q0 210 48 363t153 242t260 89t260 -89t153 -242t48 -363v-102q0 -157 -28 -283t-83.5 -218.5t-144 -143t-205.5 -50.5t-205.5 50.5t-144 143t-83.5 218.5t-28 283zM287 692q0 -553 256 -553t256 553v49q0 553 -256 553t-256 -553v-49z" />
<glyph unicode="P" horiz-adv-x="985" d="M61 0v160h132v1114h-132v160h457q129 0 230.5 -43.5t163 -133.5t61.5 -215q0 -197 -142 -326.5t-354 -129.5h-86v-426h131v-160h-461zM391 745h53q156 0 239 77.5t83 217.5q0 113 -77.5 173.5t-219.5 60.5h-78v-529z" />
<glyph unicode="Q" d="M82 666v102q0 210 48 363t153 242t260 89t260 -89t153 -242t48 -363v-102q0 -157 -28 -283t-83.5 -218.5t-144 -143t-205.5 -50.5q-39 0 -74 6q23 -5 150.5 -47.5t201.5 -42.5q63 0 142 29v-192q-73 -17 -125 -17q-69 0 -142 19t-125 42.5t-116.5 42.5t-118.5 19 q-30 0 -60 -6v160q44 6 80 6q51 0 76 -6q-118 28 -197.5 122t-116 234.5t-36.5 325.5zM287 692q0 -553 256 -553t256 553v49q0 553 -256 553t-256 -553v-49zM432 -16q6 0 10 -2q-4 2 -10 2z" />
<glyph unicode="R" horiz-adv-x="1103" d="M61 0v160h132v1114h-132v160h443q127 0 227 -41t161.5 -128t61.5 -210q0 -122 -59.5 -220.5t-163.5 -156.5l211 -518h162v-160h-305l-252 614q-27 -4 -84 -4h-72v-450h131v-160h-461zM391 770h53q147 3 225.5 76.5t78.5 206.5q0 109 -76.5 165t-216.5 56h-64v-504z" />
<glyph unicode="S" horiz-adv-x="872" d="M72 975q0 106 46 198t123.5 155t181 98.5t216.5 35.5h162l-101 -512h-182l68 350q-86 -7 -158 -42t-119 -102.5t-47 -156.5q0 -55 28.5 -104t74 -87t100.5 -75t110 -76.5t100.5 -83t74 -103t28.5 -128.5q0 -115 -67.5 -201t-169.5 -127t-219 -41q-114 0 -201 19v160 q62 -9 174 -9q287 0 287 201q0 42 -28 82.5t-73 75t-99.5 71t-109 78t-99.5 87t-73 107t-28 130.5z" />
<glyph unicode="T" horiz-adv-x="1005" d="M20 922v512h996l-94 -484h-183l62 324h-213v-1114h131v-160h-461v160h131v1114h-194v-352h-175z" />
<glyph unicode="U" horiz-adv-x="1161" d="M41 1274v160h461v-160h-131v-778q0 -180 54 -268.5t167 -88.5t167 88.5t54 268.5v778h-131v160h438v-160h-131v-803q0 -238 -105.5 -369t-312.5 -131q-201 0 -300 130.5t-99 369.5v803h-131z" />
<glyph unicode="V" horiz-adv-x="1042" d="M2 1274v160h434v-160h-102l194 -1055h9l184 1055h-111v160h430v-160h-129l-256 -1274h-268l-250 1274h-135z" />
<glyph unicode="W" horiz-adv-x="1593" d="M6 1274v160h440v-160h-108l147 -1051h9l178 1211h268l184 -1211h9l141 1051h-113v160h426v-160h-125l-198 -1274h-293l-168 1108h-8l-170 -1108h-295l-195 1274h-129z" />
<glyph unicode="X" horiz-adv-x="1093" d="M47 0v160h137l205 563l-188 551h-140v160h422v-160h-80l150 -451h8l144 451h-84v160h407v-160h-135l-191 -551l203 -563h142v-160h-426v160h75l-157 465h-9l-153 -465h82v-160h-412z" />
<glyph unicode="Y" horiz-adv-x="1030" d="M0 1274v160h434v-160h-90l178 -539h8l168 539h-94v160h426v-160h-145l-271 -764v-350h131v-160h-460v160h131v350l-266 764h-150z" />
<glyph unicode="Z" horiz-adv-x="894" d="M47 0v92l553 1182h-352v-352h-174v512h764v-93l-555 -1181h391v246h174v-406h-801z" />
<glyph unicode="[" horiz-adv-x="585" d="M164 -307v1741h350v-140h-172v-1462h172v-139h-350z" />
<glyph unicode="\" horiz-adv-x="731" d="M0 1434h178l512 -1434h-178z" />
<glyph unicode="]" horiz-adv-x="585" d="M72 -168h172v1462h-172v140h350v-1741h-350v139z" />
<glyph unicode="_" horiz-adv-x="821" d="M31 -78h760v-160h-760v160z" />
<glyph unicode="`" horiz-adv-x="239" d="M-102 1454h176l96 -313l-115 -39z" />
<glyph unicode="a" horiz-adv-x="776" d="M41 197q0 85 36 153t99 112t144 70t176 33v35q0 47 -6 86.5t-22 77t-41 63.5t-65 42t-92 16v-271h-170v430h136q216 0 326 -126.5t110 -348.5v-409h102v-160h-278v147q-43 -76 -106 -121.5t-136 -45.5q-95 0 -154 61.5t-59 155.5zM219 238q0 -39 22.5 -61.5t65.5 -22.5 q77 0 130.5 68.5t58.5 146.5v57q-118 -7 -197.5 -61.5t-79.5 -126.5z" />
<glyph unicode="b" horiz-adv-x="823" d="M25 1294v160h278v-563q38 71 96 112t129 41q116 0 177 -100t61 -262v-53q0 -118 -33.5 -231.5t-91 -201.5t-141.5 -142t-178 -54h-195v1294h-102zM303 150h19q80 0 143 74.5t94 187t31 237.5v13q0 212 -115 212q-76 0 -121.5 -68.5t-50.5 -150.5v-505z" />
<glyph unicode="c" horiz-adv-x="684" d="M57 475v12q0 107 34.5 207t97 178t157.5 125t207 47h96l-84 -426h-162l56 265q-62 -9 -115 -66t-82 -139.5t-29 -167.5v-31q0 -73 16.5 -131.5t50.5 -103.5t91.5 -69.5t134.5 -24.5q43 0 88 10v-160q-66 -20 -131 -20q-204 0 -315 137.5t-111 357.5z" />
<glyph unicode="d" horiz-adv-x="843" d="M57 342v53q0 158 56.5 302t160 235.5t228.5 91.5h18v270h-102v160h278v-1315h103v-139h-279v133q-40 -71 -97.5 -112t-127.5 -41q-116 0 -177 100t-61 262zM233 362q0 -212 115 -212q76 0 121.5 68.5t50.5 150.5v505h-18q-79 0 -141 -71.5t-94 -179.5t-34 -230v-31z" />
<glyph unicode="e" horiz-adv-x="731" d="M57 496v63q0 126 41 236t120.5 179.5t180.5 69.5q267 0 267 -458v-99h-433q3 -148 82 -242.5t232 -94.5q41 0 96 10v-160q-74 -20 -139 -20q-112 0 -199 39.5t-140.5 110t-80.5 163t-27 203.5zM236 627h264q-1 61 -5 101t-16 79.5t-36.5 58.5t-61.5 19q-60 0 -98 -67.5 t-47 -190.5z" />
<glyph unicode="f" horiz-adv-x="600" d="M55 0v160h103v694h-103v150h103q9 450 415 450h95l-68 -367h-162l39 197q-74 0 -112.5 -79t-38.5 -201h245v-150h-237v-694h123v-160h-402z" />
<glyph unicode="g" horiz-adv-x="745" d="M53 -180q0 80 45.5 147.5t124.5 138.5q-33 41 -33 93q0 58 41 129q-81 39 -128.5 120t-47.5 185v57q0 143 87.5 238.5t217.5 95.5h385v-150h-131q52 -80 52 -184v-57q0 -145 -78.5 -239.5t-206.5 -94.5h-21q-24 -24 -24 -55q0 -50 63 -66q61 -16 117 -43.5t106.5 -66 t80.5 -92.5t30 -115q0 -134 -104 -212.5t-256 -78.5q-143 0 -231.5 70.5t-88.5 179.5zM213 -160q0 -63 51 -97t129 -34q76 0 127 34t51 97q0 125 -221 195q-6 1 -14.5 4t-11.5 4q-53 -51 -82 -99t-29 -104zM213 653q1 -101 40 -157t107 -56q67 0 107 56.5t41 156.5v11 q0 103 -40 161t-108 58t-107.5 -58t-39.5 -161v-11z" />
<glyph unicode="h" horiz-adv-x="899" d="M45 0v160h102v1134h-102v160h279v-565q41 72 102 113.5t133 41.5q96 0 150.5 -67.5t54.5 -198.5v-618h127v-160h-303v739q0 71 -23 103t-73 32q-52 0 -91 -36t-56.5 -84t-20.5 -99v-495h102v-160h-381z" />
<glyph unicode="i" horiz-adv-x="501" d="M66 0v160h102v704h-102v160h278v-864h102v-160h-380zM168 1190l49 264h156l-49 -264h-156z" />
<glyph unicode="j" horiz-adv-x="436" d="M-180 -430l80 410h161l-51 -240q73 0 109.5 78t36.5 196v850h-113v160h289v-979q0 -228 -110 -351.5t-328 -123.5h-74zM156 1190l49 264h155l-49 -264h-155z" />
<glyph unicode="k" horiz-adv-x="876" d="M45 0v160h102v1134h-102v160h279v-1294h102v-160h-381zM362 459v100q0 485 416 485h64l-84 -426h-162l53 256q-65 -4 -105 -88.5t-40 -195.5v-72h119l92 -358h127v-160h-262l-129 459h-89z" />
<glyph unicode="l" horiz-adv-x="471" d="M45 0v160h102v1134h-102v160h279v-1294h102v-160h-381z" />
<glyph unicode="m" horiz-adv-x="1263" d="M55 0v160h103v704h-103v160h279v-127q79 147 209 147q65 0 110.5 -45t65.5 -118q38 75 95 119t126 44q85 0 136.5 -74.5t51.5 -176.5v-633h127v-160h-303v737q0 137 -75 137q-47 0 -80.5 -36.5t-48 -83.5t-17.5 -99v-495h117v-160h-293v735q0 139 -76 139 q-47 0 -80 -36.5t-47.5 -83t-17.5 -99.5v-495h102v-160h-381z" />
<glyph unicode="n" horiz-adv-x="909" d="M55 0v160h103v704h-103v160h279v-135q41 72 102 113.5t133 41.5q96 0 150.5 -67.5t54.5 -198.5v-618h127v-160h-303v739q0 71 -23 103t-73 32q-52 0 -91 -36t-56.5 -84t-20.5 -99v-495h102v-160h-381z" />
<glyph unicode="o" horiz-adv-x="806" d="M61 465v94q0 225 91.5 355t250.5 130t250.5 -130t91.5 -355v-94q0 -225 -91.5 -355t-250.5 -130t-250.5 130t-91.5 355zM238 477q2 -161 42.5 -249.5t122.5 -88.5q84 0 125 94t41 263v51q-7 338 -166 338q-82 0 -122.5 -88.5t-42.5 -249.5v-70z" />
<glyph unicode="p" horiz-adv-x="843" d="M45 -270h102v1134h-102v160h279v-133q38 71 96 112t129 41q116 0 176.5 -100t60.5 -262v-53q0 -118 -33.5 -231.5t-91 -201.5t-141.5 -142t-178 -54h-18v-270h102v-160h-381v160zM324 150h18q80 0 143 74.5t94 187t31 237.5v13q0 212 -114 212q-76 0 -121.5 -68.5 t-50.5 -150.5v-505z" />
<glyph unicode="q" horiz-adv-x="823" d="M57 342v53q0 158 56.5 302t160 235.5t228.5 91.5h194v-1294h103v-160h-381v160h102v403q-40 -71 -97.5 -112t-127.5 -41q-116 0 -177 100t-61 262zM233 362q0 -212 115 -212q76 0 121.5 68.5t50.5 150.5v505h-18q-80 0 -143 -74.5t-94.5 -187t-31.5 -237.5v-13z" />
<glyph unicode="r" horiz-adv-x="733" d="M55 0v160h103v704h-103v160h279v-168q48 96 126.5 147.5t180.5 51.5q59 0 102 -17l-81 -420h-162l55 263h-37q-77 0 -130.5 -84.5t-53.5 -180.5v-456h102v-160h-381z" />
<glyph unicode="s" horiz-adv-x="673" d="M51 684q0 70 28.5 134.5t80.5 115t132 80.5t175 30h156l-84 -426h-162l57 269h-20q-78 0 -133.5 -55.5t-55.5 -153.5q0 -57 41.5 -91.5t120.5 -66.5q223 -90 223 -260q0 -132 -99 -206t-280 -74q-70 0 -135 14v160q62 -15 123 -15q211 0 211 119q0 50 -37 81t-127 67 q-96 39 -155.5 108t-59.5 170z" />
<glyph unicode="t" horiz-adv-x="569" d="M25 864v129l133 21l51 235h139l-20 -235h227v-150h-227v-579q0 -71 23 -103t73 -32q62 0 117 10v-160q-82 -20 -185 -20q-96 0 -150 67.5t-54 198.5v618h-127z" />
<glyph unicode="u" horiz-adv-x="899" d="M8 864v160h303v-741q0 -71 23.5 -102t73.5 -31q40 0 72 20.5t51.5 54t30.5 70.5t13 74v495h-126v160h303v-864h102v-160h-279v133q-40 -72 -101.5 -112.5t-133.5 -40.5q-96 0 -150.5 67.5t-54.5 198.5v618h-127z" />
<glyph unicode="v" horiz-adv-x="802" d="M4 864v160h264l140 -840h8l137 680h-86v160h332v-160h-94l-195 -864h-234l-163 864h-109z" />
<glyph unicode="w" horiz-adv-x="1245" d="M4 864v160h264l117 -803h8l127 803h248l104 -809h9l116 649h-88v160h332v-160h-90l-178 -864h-234l-108 795h-8l-134 -795h-233l-145 864h-107z" />
<glyph unicode="x" horiz-adv-x="808" d="M18 864v160h254l125 -455h9l88 295h-74v160h332v-160h-101l-102 -342l106 -362h140v-160h-273l-129 475h-8l-96 -315h73v-160h-339v160h108l111 362l-103 342h-121z" />
<glyph unicode="y" horiz-adv-x="819" d="M0 864v160h274l170 -840h9l114 680h-98v160h350v-160h-94l-147 -831q-20 -113 -47.5 -194t-70.5 -144t-106 -94t-147 -31q-99 0 -129 12l74 383h161l-47 -229q56 0 90.5 67t57.5 197h-103l-194 864h-117z" />
<glyph unicode="z" horiz-adv-x="659" d="M39 0v70l393 794h-211v-250h-176v410h608v-70l-395 -794h397v-160h-616z" />
<glyph unicode="{" horiz-adv-x="593" d="M0 496v139q83 0 127.5 43t44.5 121v352q0 149 95.5 226t254.5 77v-143q-83 0 -127.5 -42t-44.5 -120v-334q0 -86 -42.5 -152.5t-108.5 -97.5q66 -32 108.5 -98t42.5 -152v-333q0 -78 44.5 -120t127.5 -42v-144q-158 0 -254 77.5t-96 226.5v352q0 78 -44.5 121t-127.5 43z " />
<glyph unicode="|" horiz-adv-x="505" d="M164 -307v1741h178v-1741h-178z" />
<glyph unicode="}" horiz-adv-x="593" d="M72 -180q83 0 127.5 42t44.5 120v333q0 86 42.5 152.5t108.5 97.5q-66 32 -108.5 98t-42.5 152v334q0 79 -44.5 122.5t-127.5 43.5v139q159 0 254.5 -77t95.5 -226v-352q0 -78 44.5 -121t127.5 -43v-139q-83 0 -127.5 -43t-44.5 -121v-352q0 -149 -96 -226.5t-254 -77.5 v144z" />
<glyph unicode="~" horiz-adv-x="987" d="M31 586q54 51 126 86t126 35q68 0 208 -51.5t199 -51.5q89 0 187 80l79 -129q-55 -52 -126.5 -86.5t-124.5 -34.5q-68 0 -208.5 51.5t-199.5 51.5q-88 0 -186 -80z" />
<glyph unicode="&#xa2;" horiz-adv-x="684" d="M57 537v12q0 142 59 269t165 202v178h178v-102q48 10 94 10h96l-84 -426h-162l56 264q-62 -9 -115 -66t-82 -139.5t-29 -167.5v-30q0 -73 16.5 -131.5t50.5 -103.5t91.5 -70t134.5 -25q43 0 88 10v-160q-66 -20 -131 -20h-18v-86h-178v129q-112 56 -171 175.5t-59 277.5z " />
<glyph unicode="&#xa3;" horiz-adv-x="925" d="M0 127q45 42 103 74.5t108 42.5v403h-123v160h123v197q0 219 102.5 334.5t313.5 115.5h94l-68 -367h-161l38 197q-74 0 -112.5 -79t-38.5 -201v-197h303v-160h-295v-426q23 -8 69 -24.5t73.5 -26t64 -17.5t65.5 -8q89 0 187 80l80 -129q-54 -51 -126 -86t-126 -35 q-68 0 -208.5 51.5t-199.5 51.5q-88 0 -186 -80z" />
<glyph unicode="&#xa5;" horiz-adv-x="1071" d="M20 1274v160h435v-160h-90l178 -539h8l168 539h-94v160h426v-160h-146l-145 -410h186v-180h-250l-61 -174v-6h311v-180h-311v-164h131v-160h-461v160h131v164h-311v180h311v6l-61 174h-250v180h186l-141 410h-150z" />
<glyph unicode="&#xa7;" horiz-adv-x="673" d="M51 684q0 122 78 215q-78 81 -78 193q0 70 28.5 134.5t80.5 115t132 80.5t175 30h156l-84 -426h-162l57 268h-20q-78 0 -133.5 -55.5t-55.5 -153.5q0 -57 41.5 -91t120.5 -66q223 -90 223 -260q0 -140 -106 -211q106 -80 106 -197q0 -132 -99 -206t-280 -74 q-70 0 -135 14v160q62 -15 123 -15q211 0 211 119q0 50 -37 81t-127 67q-96 39 -155.5 108t-59.5 170zM221 682q0 -108 170 -152q43 60 43 132q0 107 -170 151q-43 -60 -43 -131z" />
<glyph unicode="&#xa8;" horiz-adv-x="448" d="M0 1208l45 234h156l-45 -234h-156zM248 1208l45 234h156l-46 -234h-155z" />
<glyph unicode="&#xab;" horiz-adv-x="843" d="M82 467v164l258 243l100 -100l-204 -225l204 -225l-100 -101zM403 467v164l259 243l100 -100l-205 -225l205 -225l-100 -101z" />
<glyph unicode="&#xad;" horiz-adv-x="985" d="M82 524v181h821v-181h-821z" />
<glyph unicode="&#xb4;" horiz-adv-x="251" d="M82 1141l96 313h176l-157 -352z" />
<glyph unicode="&#xb5;" horiz-adv-x="935" d="M45 864v160h303v-741q0 -71 23 -102t73 -31q52 0 91 36t56.5 84t20.5 99v495h-127v160h303v-864h103v-160h-279v133q-84 -153 -194 -153q-40 0 -70 20v-430h-176v1294h-127z" />
<glyph unicode="&#xb8;" horiz-adv-x="327" d="M0 -379l25 113q43 -6 90 -6q34 0 53.5 16t19.5 47q0 39 -51 39h-45v74l64 116h127l-45 -86q84 -44 84 -143q0 -86 -59.5 -134t-139.5 -48q-12 0 -123 12z" />
<glyph unicode="&#xbb;" horiz-adv-x="843" d="M82 324l205 225l-205 225l100 100l258 -243v-164l-258 -244zM403 324l205 225l-205 225l101 100l258 -243v-164l-258 -244z" />
<glyph unicode="&#xc0;" horiz-adv-x="1050" d="M-4 0v160h129l223 1114h-98v160h420l258 -1274h127v-160h-434v160h96l-49 270h-306l-47 -270h107v-160h-426zM328 1855h176l96 -313l-115 -39zM391 590h248l-121 659h-8z" />
<glyph unicode="&#xc1;" horiz-adv-x="1050" d="M-4 0v160h129l223 1114h-98v160h420l258 -1274h127v-160h-434v160h96l-49 270h-306l-47 -270h107v-160h-426zM391 590h248l-121 659h-8zM451 1542l96 313h176l-158 -352z" />
<glyph unicode="&#xc2;" horiz-adv-x="1050" d="M-4 0v160h129l223 1114h-98v160h420l258 -1274h127v-160h-434v160h96l-49 270h-306l-47 -270h107v-160h-426zM246 1524l178 331h182l178 -331h-176l-94 237l-92 -237h-176zM391 590h248l-121 659h-8z" />
<glyph unicode="&#xc3;" horiz-adv-x="1050" d="M-4 0v160h129l223 1114h-98v160h420l258 -1274h127v-160h-434v160h96l-49 270h-306l-47 -270h107v-160h-426zM207 1718q41 38 92.5 64t87.5 26q47 0 137 -32q75 -27 107 -27q35 0 117 55l73 -121q-43 -37 -94.5 -63.5t-85.5 -26.5q-57 0 -139 33q-74 29 -105 29 q-40 0 -118 -60zM391 590h248l-121 659h-8z" />
<glyph unicode="&#xc4;" horiz-adv-x="1050" d="M-4 0v160h129l223 1114h-98v160h420l258 -1274h127v-160h-434v160h96l-49 270h-306l-47 -270h107v-160h-426zM301 1610l45 233h156l-45 -233h-156zM391 590h248l-121 659h-8zM549 1610l45 233h156l-45 -233h-156z" />
<glyph unicode="&#xc5;" horiz-adv-x="1050" d="M-4 0v160h129l223 1114h-98v160h254q-88 3 -147.5 60t-59.5 148q0 95 59.5 152t157.5 57q99 0 159 -57t60 -152q0 -91 -61.5 -148t-149.5 -60h148l258 -1274h127v-160h-434v160h96l-49 270h-306l-47 -270h107v-160h-426zM391 590h248l-121 659h-8zM430 1642q0 -38 24 -62 t60 -24q37 0 61.5 24t24.5 62q0 39 -23.5 63t-62.5 24t-61.5 -24t-22.5 -63z" />
<glyph unicode="&#xc6;" horiz-adv-x="1429" d="M-55 0v160h129l366 1114h-118v160h1040l-94 -484h-172l51 324h-309v-510h288v-160h-288v-444h346v246h174v-406h-850v160h131v270h-283l-82 -270h107v-160h-436zM403 590h236v684h-27z" />
<glyph unicode="&#xc7;" horiz-adv-x="923" d="M84 598v61q0 155 47 299.5t131 256.5t212.5 179.5t281.5 67.5h129l-101 -512h-182l66 350q-116 -13 -204 -106.5t-131.5 -230t-43.5 -291.5v-47q0 -225 106.5 -349t290.5 -124q45 0 113 10v-170q-87 -19 -160 -19q-27 0 -39 2l-20 -41q84 -44 84 -143q0 -86 -59.5 -134 t-139.5 -48q-12 0 -123 12l25 113q43 -6 90 -6q34 0 53.5 16t19.5 47q0 39 -51 39h-45v74l49 90q-182 48 -290.5 207t-108.5 397z" />
<glyph unicode="&#xc8;" horiz-adv-x="1003" d="M61 0v160h132v1114h-132v160h875l-94 -484h-172l51 324h-330v-490h309v-159h-309v-465h367v246h174v-406h-871zM324 1855h176l96 -313l-115 -39z" />
<glyph unicode="&#xc9;" horiz-adv-x="1003" d="M61 0v160h132v1114h-132v160h875l-94 -484h-172l51 324h-330v-490h309v-159h-309v-465h367v246h174v-406h-871zM426 1542l96 313h176l-157 -352z" />
<glyph unicode="&#xca;" horiz-adv-x="1003" d="M61 0v160h132v1114h-132v160h875l-94 -484h-172l51 324h-330v-490h309v-159h-309v-465h367v246h174v-406h-871zM231 1524l179 331h182l178 -331h-176l-94 237l-92 -237h-177z" />
<glyph unicode="&#xcb;" horiz-adv-x="1003" d="M61 0v160h132v1114h-132v160h875l-94 -484h-172l51 324h-330v-490h309v-159h-309v-465h367v246h174v-406h-871zM297 1610l45 233h156l-45 -233h-156zM545 1610l45 233h155l-45 -233h-155z" />
<glyph unicode="&#xcc;" horiz-adv-x="604" d="M72 0v160h131v1114h-131v160h460v-160h-131v-1114h131v-160h-460zM104 1855h177l96 -313l-115 -39z" />
<glyph unicode="&#xcd;" horiz-adv-x="604" d="M72 0v160h131v1114h-131v160h460v-160h-131v-1114h131v-160h-460zM244 1542l96 313h176l-158 -352z" />
<glyph unicode="&#xce;" horiz-adv-x="604" d="M33 1524l178 331h182l178 -331h-176l-94 237l-92 -237h-176zM72 0v160h131v1114h-131v160h460v-160h-131v-1114h131v-160h-460z" />
<glyph unicode="&#xcf;" horiz-adv-x="604" d="M72 0v160h131v1114h-131v160h460v-160h-131v-1114h131v-160h-460zM98 1610l45 233h156l-45 -233h-156zM346 1610l45 233h156l-45 -233h-156z" />
<glyph unicode="&#xd0;" horiz-adv-x="1114" d="M59 633v180h134v461h-132v160h422q257 0 403 -161t146 -444v-102q0 -153 -45 -287t-125 -231t-196 -153t-252 -56h-353v160h132v473h-134zM391 160h23q121 0 216 80t146 215t51 299v49q0 220 -91.5 345.5t-252.5 125.5h-92v-461h152v-180h-152v-473z" />
<glyph unicode="&#xd1;" horiz-adv-x="1236" d="M61 0v160h132v1114h-132v160h414l395 -1164h9v1004h-131v160h438v-160h-131v-1274h-283l-395 1163h-8v-1003h131v-160h-439zM311 1718q40 37 92.5 63.5t88.5 26.5q47 0 137 -32q75 -27 106 -27q35 0 117 55l74 -121q-43 -37 -95 -63.5t-86 -26.5q-57 0 -139 33 q-74 29 -104 29q-41 0 -119 -60z" />
<glyph unicode="&#xd2;" d="M82 666v102q0 210 48 363t153 242t260 89t260 -89t153 -242t48 -363v-102q0 -157 -28 -283t-83.5 -218.5t-144 -143t-205.5 -50.5t-205.5 50.5t-144 143t-83.5 218.5t-28 283zM287 692q0 -553 256 -553t256 553v49q0 553 -256 553t-256 -553v-49zM324 1855h176l96 -313 l-115 -39z" />
<glyph unicode="&#xd3;" d="M82 666v102q0 210 48 363t153 242t260 89t260 -89t153 -242t48 -363v-102q0 -157 -28 -283t-83.5 -218.5t-144 -143t-205.5 -50.5t-205.5 50.5t-144 143t-83.5 218.5t-28 283zM287 692q0 -553 256 -553t256 553v49q0 553 -256 553t-256 -553v-49zM487 1542l97 313h176 l-158 -352z" />
<glyph unicode="&#xd4;" d="M82 666v102q0 210 48 363t153 242t260 89t260 -89t153 -242t48 -363v-102q0 -157 -28 -283t-83.5 -218.5t-144 -143t-205.5 -50.5t-205.5 50.5t-144 143t-83.5 218.5t-28 283zM272 1524l179 331h182l178 -331h-176l-94 237l-92 -237h-177zM287 692q0 -553 256 -553 t256 553v49q0 553 -256 553t-256 -553v-49z" />
<glyph unicode="&#xd5;" d="M82 666v102q0 210 48 363t153 242t260 89t260 -89t153 -242t48 -363v-102q0 -157 -28 -283t-83.5 -218.5t-144 -143t-205.5 -50.5t-205.5 50.5t-144 143t-83.5 218.5t-28 283zM236 1718q41 38 92.5 64t87.5 26q47 0 137 -32q75 -27 106 -27q35 0 117 55l74 -121 q-43 -37 -94.5 -63.5t-85.5 -26.5q-58 0 -140 33q-74 29 -104 29q-41 0 -119 -60zM287 692q0 -553 256 -553t256 553v49q0 553 -256 553t-256 -553v-49z" />
<glyph unicode="&#xd6;" d="M82 666v102q0 210 48 363t153 242t260 89t260 -89t153 -242t48 -363v-102q0 -157 -28 -283t-83.5 -218.5t-144 -143t-205.5 -50.5t-205.5 50.5t-144 143t-83.5 218.5t-28 283zM287 692q0 -553 256 -553t256 553v49q0 553 -256 553t-256 -553v-49zM322 1610l45 233h155 l-45 -233h-155zM569 1610l45 233h156l-45 -233h-156z" />
<glyph unicode="&#xd7;" horiz-adv-x="983" d="M123 373l239 239l-239 242l127 127l239 -242l244 244l127 -127l-244 -244l244 -241l-127 -127l-244 241l-239 -239z" />
<glyph unicode="&#xd8;" d="M82 666v102q0 210 48 363t153 242t260 89q93 0 164 -30l2 2h178l-39 -107q156 -181 156 -559v-102q0 -157 -28 -283t-83.5 -218.5t-144 -143t-205.5 -50.5q-84 0 -168 31v-2h-178l36 106q-151 182 -151 560zM287 692q0 -211 35 -340l325 912q-43 30 -104 30 q-256 0 -256 -553v-49zM434 170q48 -31 109 -31q256 0 256 553v49q0 219 -37 342z" />
<glyph unicode="&#xd9;" horiz-adv-x="1161" d="M41 1274v160h461v-160h-131v-778q0 -180 54 -268.5t167 -88.5t167 88.5t54 268.5v778h-131v160h438v-160h-131v-803q0 -238 -105.5 -369t-312.5 -131q-201 0 -300 130.5t-99 369.5v803h-131zM375 1855h176l96 -313l-115 -39z" />
<glyph unicode="&#xda;" horiz-adv-x="1161" d="M41 1274v160h461v-160h-131v-778q0 -180 54 -268.5t167 -88.5t167 88.5t54 268.5v778h-131v160h438v-160h-131v-803q0 -238 -105.5 -369t-312.5 -131q-201 0 -300 130.5t-99 369.5v803h-131zM535 1542l96 313h176l-158 -352z" />
<glyph unicode="&#xdb;" horiz-adv-x="1161" d="M41 1274v160h461v-160h-131v-778q0 -180 54 -268.5t167 -88.5t167 88.5t54 268.5v778h-131v160h438v-160h-131v-803q0 -238 -105.5 -369t-312.5 -131q-201 0 -300 130.5t-99 369.5v803h-131zM311 1524l178 331h183l178 -331h-176l-94 237l-93 -237h-176z" />
<glyph unicode="&#xdc;" horiz-adv-x="1161" d="M41 1274v160h461v-160h-131v-778q0 -180 54 -268.5t167 -88.5t167 88.5t54 268.5v778h-131v160h438v-160h-131v-803q0 -238 -105.5 -369t-312.5 -131q-201 0 -300 130.5t-99 369.5v803h-131zM375 1610l45 233h155l-45 -233h-155zM623 1610l45 233h155l-45 -233h-155z" />
<glyph unicode="&#xdd;" horiz-adv-x="1030" d="M0 1274v160h434v-160h-90l178 -539h8l168 539h-94v160h426v-160h-145l-271 -764v-350h131v-160h-460v160h131v350l-266 764h-150zM430 1542l96 313h176l-157 -352z" />
<glyph unicode="&#xde;" horiz-adv-x="985" d="M61 0v160h132v1114h-132v160h461v-160h-131v-109h127q129 0 230.5 -43t163 -133t61.5 -215q0 -197 -142 -327t-354 -130h-86v-157h131v-160h-461zM391 477h53q156 0 239 77.5t83 217.5q0 113 -77.5 173.5t-219.5 60.5h-78v-529z" />
<glyph unicode="&#xe0;" horiz-adv-x="776" d="M41 197q0 85 36 153t99 112t144 70t176 33v35q0 47 -6 86.5t-22 77t-41 63.5t-65 42t-92 16v-271h-170v430h136q216 0 326 -126.5t110 -348.5v-409h102v-160h-278v147q-43 -76 -106 -121.5t-136 -45.5q-95 0 -154 61.5t-59 155.5zM150 1454h176l96 -313l-115 -39z M219 238q0 -39 22.5 -61.5t65.5 -22.5q77 0 130.5 68.5t58.5 146.5v57q-118 -7 -197.5 -61.5t-79.5 -126.5z" />
<glyph unicode="&#xe1;" horiz-adv-x="776" d="M41 197q0 85 36 153t99 112t144 70t176 33v35q0 47 -6 86.5t-22 77t-41 63.5t-65 42t-92 16v-271h-170v430h136q216 0 326 -126.5t110 -348.5v-409h102v-160h-278v147q-43 -76 -106 -121.5t-136 -45.5q-95 0 -154 61.5t-59 155.5zM219 238q0 -39 22.5 -61.5t65.5 -22.5 q77 0 130.5 68.5t58.5 146.5v57q-118 -7 -197.5 -61.5t-79.5 -126.5zM297 1141l96 313h176l-157 -352z" />
<glyph unicode="&#xe2;" horiz-adv-x="776" d="M41 197q0 85 36 153t99 112t144 70t176 33v35q0 47 -6 86.5t-22 77t-41 63.5t-65 42t-92 16v-271h-170v430h136q216 0 326 -126.5t110 -348.5v-409h102v-160h-278v147q-43 -76 -106 -121.5t-136 -45.5q-95 0 -154 61.5t-59 155.5zM119 1122l178 332h182l178 -332h-176 l-94 238l-92 -238h-176zM219 238q0 -39 22.5 -61.5t65.5 -22.5q77 0 130.5 68.5t58.5 146.5v57q-118 -7 -197.5 -61.5t-79.5 -126.5z" />
<glyph unicode="&#xe3;" horiz-adv-x="776" d="M41 197q0 85 36 153t99 112t144 70t176 33v35q0 47 -6 86.5t-22 77t-41 63.5t-65 42t-92 16v-271h-170v430h136q216 0 326 -126.5t110 -348.5v-409h102v-160h-278v147q-43 -76 -106 -121.5t-136 -45.5q-95 0 -154 61.5t-59 155.5zM57 1317q40 37 92.5 63.5t88.5 26.5 q44 0 137 -33q72 -26 106 -26q35 0 117 55l74 -121q-43 -37 -94.5 -63.5t-85.5 -26.5q-58 0 -140 33q-72 28 -104 28q-42 0 -119 -59zM219 238q0 -39 22.5 -61.5t65.5 -22.5q77 0 130.5 68.5t58.5 146.5v57q-118 -7 -197.5 -61.5t-79.5 -126.5z" />
<glyph unicode="&#xe4;" horiz-adv-x="776" d="M41 197q0 85 36 153t99 112t144 70t176 33v35q0 47 -6 86.5t-22 77t-41 63.5t-65 42t-92 16v-271h-170v430h136q216 0 326 -126.5t110 -348.5v-409h102v-160h-278v147q-43 -76 -106 -121.5t-136 -45.5q-95 0 -154 61.5t-59 155.5zM164 1208l45 234h156l-46 -234h-155z M219 238q0 -39 22.5 -61.5t65.5 -22.5q77 0 130.5 68.5t58.5 146.5v57q-118 -7 -197.5 -61.5t-79.5 -126.5zM412 1208l45 234h155l-45 -234h-155z" />
<glyph unicode="&#xe5;" horiz-adv-x="776" d="M41 197q0 85 36 153t99 112t144 70t176 33v35q0 47 -6 86.5t-22 77t-41 63.5t-65 42t-92 16v-271h-170v430h136q216 0 326 -126.5t110 -348.5v-409h102v-160h-278v147q-43 -76 -106 -121.5t-136 -45.5q-95 0 -154 61.5t-59 155.5zM152 1309q0 95 59.5 152t157.5 57 q99 0 159 -57t60 -152q0 -93 -64 -151t-155 -58q-90 0 -153.5 58t-63.5 151zM219 238q0 -39 22.5 -61.5t65.5 -22.5q77 0 130.5 68.5t58.5 146.5v57q-118 -7 -197.5 -61.5t-79.5 -126.5zM285 1309q0 -38 24 -62t60 -24q37 0 61.5 24t24.5 62q0 39 -23.5 62.5t-62.5 23.5 t-61.5 -23.5t-22.5 -62.5z" />
<glyph unicode="&#xe6;" horiz-adv-x="1169" d="M41 197q0 85 36 153t99 112t144 70t176 33v35q0 47 -6 86.5t-22 77t-41 63.5t-65 42t-92 16v-271h-170v430h136q234 0 348 -155q46 73 111 114t143 41q266 0 266 -458v-99h-432v-14q6 -143 84.5 -233t228.5 -90q41 0 96 10v-160q-74 -20 -139 -20q-136 0 -232 56 t-149 157q-102 -213 -307 -213q-95 0 -154 61.5t-59 155.5zM219 238q0 -39 22.5 -61.5t65.5 -22.5q77 0 130.5 68.5t58.5 146.5v57q-118 -7 -197.5 -61.5t-79.5 -126.5zM674 627h264q-1 61 -5 101t-16 79.5t-36.5 58.5t-61.5 19q-60 0 -98 -67.5t-47 -190.5z" />
<glyph unicode="&#xe7;" horiz-adv-x="684" d="M57 475v12q0 107 34.5 207t97 178t157.5 125t207 47h96l-84 -426h-162l56 265q-62 -9 -115 -66t-82 -139.5t-29 -167.5v-31q0 -73 16.5 -131.5t50.5 -103.5t91.5 -69.5t134.5 -24.5q43 0 88 10v-160q-66 -20 -131 -20h-14l-23 -46q84 -44 84 -143q0 -86 -59 -134 t-139 -48q-12 0 -123 12l24 113q43 -6 91 -6q34 0 53.5 16t19.5 47q0 39 -51 39h-45v74l51 94q-143 40 -219 167.5t-76 309.5z" />
<glyph unicode="&#xe8;" horiz-adv-x="731" d="M57 496v63q0 126 41 236t120.5 179.5t180.5 69.5q267 0 267 -458v-99h-433q3 -148 82 -242.5t232 -94.5q41 0 96 10v-160q-74 -20 -139 -20q-112 0 -199 39.5t-140.5 110t-80.5 163t-27 203.5zM168 1454h176l96 -313l-114 -39zM236 627h264q-1 61 -5 101t-16 79.5 t-36.5 58.5t-61.5 19q-60 0 -98 -67.5t-47 -190.5z" />
<glyph unicode="&#xe9;" horiz-adv-x="731" d="M57 496v63q0 126 41 236t120.5 179.5t180.5 69.5q267 0 267 -458v-99h-433q3 -148 82 -242.5t232 -94.5q41 0 96 10v-160q-74 -20 -139 -20q-112 0 -199 39.5t-140.5 110t-80.5 163t-27 203.5zM236 627h264q-1 61 -5 101t-16 79.5t-36.5 58.5t-61.5 19q-60 0 -98 -67.5 t-47 -190.5zM336 1141l96 313h176l-157 -352z" />
<glyph unicode="&#xea;" horiz-adv-x="731" d="M57 496v63q0 126 41 236t120.5 179.5t180.5 69.5q267 0 267 -458v-99h-433q3 -148 82 -242.5t232 -94.5q41 0 96 10v-160q-74 -20 -139 -20q-112 0 -199 39.5t-140.5 110t-80.5 163t-27 203.5zM96 1122l178 332h183l178 -332h-176l-94 238l-93 -238h-176zM236 627h264 q-1 61 -5 101t-16 79.5t-36.5 58.5t-61.5 19q-60 0 -98 -67.5t-47 -190.5z" />
<glyph unicode="&#xeb;" horiz-adv-x="731" d="M57 496v63q0 126 41 236t120.5 179.5t180.5 69.5q267 0 267 -458v-99h-433q3 -148 82 -242.5t232 -94.5q41 0 96 10v-160q-74 -20 -139 -20q-112 0 -199 39.5t-140.5 110t-80.5 163t-27 203.5zM180 1208l45 234h156l-45 -234h-156zM236 627h264q-1 61 -5 101t-16 79.5 t-36.5 58.5t-61.5 19q-60 0 -98 -67.5t-47 -190.5zM428 1208l45 234h156l-45 -234h-156z" />
<glyph unicode="&#xec;" horiz-adv-x="501" d="M51 1454h176l97 -313l-115 -39zM66 0v160h102v704h-102v160h278v-864h102v-160h-380z" />
<glyph unicode="&#xed;" horiz-adv-x="501" d="M66 0v160h102v704h-102v160h278v-864h102v-160h-380zM186 1141l97 313h176l-158 -352z" />
<glyph unicode="&#xee;" horiz-adv-x="501" d="M-18 1122l178 332h182l178 -332h-176l-94 238l-92 -238h-176zM66 0v160h102v704h-102v160h278v-864h102v-160h-380z" />
<glyph unicode="&#xef;" horiz-adv-x="501" d="M27 1208l45 234h155l-45 -234h-155zM66 0v160h102v704h-102v160h278v-864h102v-160h-380zM274 1208l45 234h156l-45 -234h-156z" />
<glyph unicode="&#xf0;" horiz-adv-x="806" d="M61 465v74q0 230 73 357.5t218 127.5q80 0 146 -59.5t106 -157.5h8q-36 175 -168 307l-247 -98l-54 133l174 70q-38 25 -147 77l72 142q137 -70 241 -154l199 80l51 -133l-141 -57q153 -191 153 -480v-209q0 -244 -90.5 -374.5t-251.5 -130.5q-151 0 -246.5 132 t-95.5 353zM238 496q0 -169 40.5 -263t124.5 -94t125 94t41 263v51q-7 317 -166 317q-84 0 -124.5 -93.5t-40.5 -262.5v-12z" />
<glyph unicode="&#xf1;" horiz-adv-x="909" d="M55 0v160h103v704h-103v160h279v-135q41 72 102 113.5t133 41.5q96 0 150.5 -67.5t54.5 -198.5v-618h127v-160h-303v739q0 71 -23 103t-73 32q-52 0 -91 -36t-56.5 -84t-20.5 -99v-495h102v-160h-381zM135 1317q41 38 92.5 64t87.5 26q45 0 138 -33q72 -26 106 -26 q35 0 117 55l74 -121q-43 -37 -95 -63.5t-86 -26.5q-57 0 -139 33q-72 28 -104 28q-42 0 -119 -59z" />
<glyph unicode="&#xf2;" horiz-adv-x="806" d="M61 465v94q0 225 91.5 355t250.5 130t250.5 -130t91.5 -355v-94q0 -225 -91.5 -355t-250.5 -130t-250.5 130t-91.5 355zM190 1454h177l96 -313l-115 -39zM238 477q2 -161 42.5 -249.5t122.5 -88.5q84 0 125 94t41 263v51q-7 338 -166 338q-82 0 -122.5 -88.5 t-42.5 -249.5v-70z" />
<glyph unicode="&#xf3;" horiz-adv-x="806" d="M61 465v94q0 225 91.5 355t250.5 130t250.5 -130t91.5 -355v-94q0 -225 -91.5 -355t-250.5 -130t-250.5 130t-91.5 355zM238 477q2 -161 42.5 -249.5t122.5 -88.5q84 0 125 94t41 263v51q-7 338 -166 338q-82 0 -122.5 -88.5t-42.5 -249.5v-70zM344 1141l96 313h176 l-157 -352z" />
<glyph unicode="&#xf4;" horiz-adv-x="806" d="M61 465v94q0 225 91.5 355t250.5 130t250.5 -130t91.5 -355v-94q0 -225 -91.5 -355t-250.5 -130t-250.5 130t-91.5 355zM133 1122l178 332h183l178 -332h-176l-95 238l-92 -238h-176zM238 477q2 -161 42.5 -249.5t122.5 -88.5q84 0 125 94t41 263v51q-7 338 -166 338 q-82 0 -122.5 -88.5t-42.5 -249.5v-70z" />
<glyph unicode="&#xf5;" horiz-adv-x="806" d="M61 465v94q0 225 91.5 355t250.5 130t250.5 -130t91.5 -355v-94q0 -225 -91.5 -355t-250.5 -130t-250.5 130t-91.5 355zM96 1317q41 38 92.5 64t87.5 26q45 0 138 -33q72 -26 106 -26q35 0 117 55l74 -121q-43 -37 -95 -63.5t-86 -26.5q-56 0 -139 33q-72 28 -104 28 q-42 0 -119 -59zM238 477q2 -161 42.5 -249.5t122.5 -88.5q84 0 125 94t41 263v51q-7 338 -166 338q-82 0 -122.5 -88.5t-42.5 -249.5v-70z" />
<glyph unicode="&#xf6;" horiz-adv-x="806" d="M61 465v94q0 225 91.5 355t250.5 130t250.5 -130t91.5 -355v-94q0 -225 -91.5 -355t-250.5 -130t-250.5 130t-91.5 355zM188 1208l45 234h156l-45 -234h-156zM238 477q2 -161 42.5 -249.5t122.5 -88.5q84 0 125 94t41 263v51q-7 338 -166 338q-82 0 -122.5 -88.5 t-42.5 -249.5v-70zM436 1208l45 234h156l-45 -234h-156z" />
<glyph unicode="&#xf7;" horiz-adv-x="985" d="M82 524v181h821v-181h-821zM412 162v168h176v-168h-176zM412 897v168h176v-168h-176z" />
<glyph unicode="&#xf8;" horiz-adv-x="806" d="M45 0l78 160q-62 121 -62 305v94q0 225 91.5 355t250.5 130q71 0 136 -30l16 30h178l-71 -145q83 -128 83 -340v-94q0 -225 -91.5 -355t-250.5 -130q-96 0 -167 47l-13 -27h-178zM238 477q0 -53 2 -76l227 465q-29 19 -64 19q-82 0 -122.5 -88.5t-42.5 -249.5v-70z M311 180q38 -41 92 -41q84 0 125 94t41 263v51q-3 76 -12 137z" />
<glyph unicode="&#xf9;" horiz-adv-x="899" d="M8 864v160h303v-741q0 -71 23.5 -102t73.5 -31q40 0 72 20.5t51.5 54t30.5 70.5t13 74v495h-126v160h303v-864h102v-160h-279v133q-40 -72 -101.5 -112.5t-133.5 -40.5q-96 0 -150.5 67.5t-54.5 198.5v618h-127zM231 1454h177l96 -313l-115 -39z" />
<glyph unicode="&#xfa;" horiz-adv-x="899" d="M8 864v160h303v-741q0 -71 23.5 -102t73.5 -31q40 0 72 20.5t51.5 54t30.5 70.5t13 74v495h-126v160h303v-864h102v-160h-279v133q-40 -72 -101.5 -112.5t-133.5 -40.5q-96 0 -150.5 67.5t-54.5 198.5v618h-127zM354 1141l97 313h176l-158 -352z" />
<glyph unicode="&#xfb;" horiz-adv-x="899" d="M8 864v160h303v-741q0 -71 23.5 -102t73.5 -31q40 0 72 20.5t51.5 54t30.5 70.5t13 74v495h-126v160h303v-864h102v-160h-279v133q-40 -72 -101.5 -112.5t-133.5 -40.5q-96 0 -150.5 67.5t-54.5 198.5v618h-127zM180 1122l178 332h183l178 -332h-176l-94 238l-93 -238 h-176z" />
<glyph unicode="&#xfc;" horiz-adv-x="899" d="M8 864v160h303v-741q0 -71 23.5 -102t73.5 -31q40 0 72 20.5t51.5 54t30.5 70.5t13 74v495h-126v160h303v-864h102v-160h-279v133q-40 -72 -101.5 -112.5t-133.5 -40.5q-96 0 -150.5 67.5t-54.5 198.5v618h-127zM225 1208l45 234h156l-45 -234h-156zM473 1208l45 234h156 l-45 -234h-156z" />
<glyph unicode="&#xfd;" horiz-adv-x="819" d="M0 864v160h274l170 -840h9l114 680h-98v160h350v-160h-94l-147 -831q-20 -113 -47.5 -194t-70.5 -144t-106 -94t-147 -31q-99 0 -129 12l74 383h161l-47 -229q56 0 90.5 67t57.5 197h-103l-194 864h-117zM354 1141l97 313h176l-158 -352z" />
<glyph unicode="&#xfe;" horiz-adv-x="823" d="M25 -270h102v1564h-102v160h278v-563q38 71 96 112t129 41q116 0 177 -100t61 -262v-53q0 -118 -33.5 -231.5t-91 -201.5t-141.5 -142t-178 -54h-19v-270h103v-160h-381v160zM303 150h19q80 0 143 74.5t94 187t31 237.5v13q0 212 -115 212q-76 0 -121.5 -68.5 t-50.5 -150.5v-505z" />
<glyph unicode="&#xff;" horiz-adv-x="819" d="M0 864v160h274l170 -840h9l114 680h-98v160h350v-160h-94l-147 -831q-20 -113 -47.5 -194t-70.5 -144t-106 -94t-147 -31q-99 0 -129 12l74 383h161l-47 -229q56 0 90.5 67t57.5 197h-103l-194 864h-117zM197 1208l45 234h155l-45 -234h-155zM444 1208l45 234h156 l-45 -234h-156z" />
<glyph unicode="&#x103;" horiz-adv-x="776" d="M41 197q0 85 36 153t99 112t144 70t176 33v35q0 47 -6 86.5t-22 77t-41 63.5t-65 42t-92 16v-271h-170v430h136q216 0 326 -126.5t110 -348.5v-409h102v-160h-278v147q-43 -76 -106 -121.5t-136 -45.5q-95 0 -154 61.5t-59 155.5zM125 1444h145q0 -71 31 -112.5t86 -41.5 t86 41.5t31 112.5h145q0 -137 -72.5 -219t-189.5 -82t-189.5 82t-72.5 219zM219 238q0 -39 22.5 -61.5t65.5 -22.5q77 0 130.5 68.5t58.5 146.5v57q-118 -7 -197.5 -61.5t-79.5 -126.5z" />
<glyph unicode="&#x119;" horiz-adv-x="731" d="M57 496v63q0 126 41 236t120.5 179.5t180.5 69.5q267 0 267 -458v-99h-433q3 -148 82 -242.5t232 -94.5q41 0 96 10v-160q-154 -142 -154 -213q0 -35 37 -35q32 0 119 72l66 -100q-109 -113 -211 -113q-57 0 -106.5 45.5t-49.5 114.5q0 95 90 215q-124 15 -210.5 86.5 t-126.5 179t-40 244.5zM236 627h264q-1 61 -5 101t-16 79.5t-36.5 58.5t-61.5 19q-60 0 -98 -67.5t-47 -190.5z" />
<glyph unicode="&#x144;" horiz-adv-x="909" d="M55 0v160h103v704h-103v160h279v-135q41 72 102 113.5t133 41.5q96 0 150.5 -67.5t54.5 -198.5v-618h127v-160h-303v739q0 71 -23 103t-73 32q-52 0 -91 -36t-56.5 -84t-20.5 -99v-495h102v-160h-381zM338 1141l96 313h176l-157 -352z" />
<glyph unicode="&#x148;" horiz-adv-x="909" d="M55 0v160h103v704h-103v160h279v-135q41 72 102 113.5t133 41.5q96 0 150.5 -67.5t54.5 -198.5v-618h127v-160h-303v739q0 71 -23 103t-73 32q-52 0 -91 -36t-56.5 -84t-20.5 -99v-495h102v-160h-381zM184 1454h176l93 -237l94 237h176l-178 -332h-183z" />
<glyph unicode="&#x152;" horiz-adv-x="1482" d="M82 666v102q0 210 48 363t153 242t260 89q86 0 159 -28h713l-94 -484h-172l51 324h-330v-490h310v-159h-310v-465h367v246h174v-406h-709q-76 -29 -159 -29q-117 0 -205.5 50.5t-144 143t-83.5 218.5t-28 283zM287 692q0 -553 256 -553q76 0 129 47v1059q-55 49 -129 49 q-256 0 -256 -553v-49z" />
<glyph unicode="&#x153;" horiz-adv-x="1243" d="M61 465v94q0 225 91.5 355t250.5 130q169 0 261 -147q96 147 247 147q267 0 267 -458v-99h-433q3 -148 82 -242.5t232 -94.5q41 0 96 10v-160q-74 -20 -139 -20q-227 0 -346 157q-88 -157 -267 -157q-159 0 -250.5 130t-91.5 355zM238 477q2 -161 42.5 -249.5 t122.5 -88.5q84 0 125 94t41 263v65q0 151 -43.5 237.5t-122.5 86.5q-82 0 -122.5 -88.5t-42.5 -249.5v-70zM748 627h264q-1 61 -5 101t-16 79.5t-36.5 58.5t-61.5 19q-60 0 -98 -67.5t-47 -190.5z" />
<glyph unicode="&#x160;" horiz-adv-x="872" d="M72 975q0 106 46 198t123.5 155t181 98.5t216.5 35.5h162l-101 -512h-182l68 350q-86 -7 -158 -42t-119 -102.5t-47 -156.5q0 -55 28.5 -104t74 -87t100.5 -75t110 -76.5t100.5 -83t74 -103t28.5 -128.5q0 -115 -67.5 -201t-169.5 -127t-219 -41q-114 0 -201 19v160 q62 -9 174 -9q287 0 287 201q0 42 -28 82.5t-73 75t-99.5 71t-109 78t-99.5 87t-73 107t-28 130.5zM207 1855h176l92 -237l94 237h176l-178 -331h-182z" />
<glyph unicode="&#x161;" horiz-adv-x="673" d="M51 684q0 70 28.5 134.5t80.5 115t132 80.5t175 30h156l-84 -426h-162l57 269h-20q-78 0 -133.5 -55.5t-55.5 -153.5q0 -57 41.5 -91.5t120.5 -66.5q223 -90 223 -260q0 -132 -99 -206t-280 -74q-70 0 -135 14v160q62 -15 123 -15q211 0 211 119q0 50 -37 81t-127 67 q-96 39 -155.5 108t-59.5 170zM88 1454h176l92 -237l95 237h176l-178 -332h-183z" />
<glyph unicode="&#x178;" horiz-adv-x="1030" d="M0 1274v160h434v-160h-90l178 -539h8l168 539h-94v160h426v-160h-145l-271 -764v-350h131v-160h-460v160h131v350l-266 764h-150zM311 1610l45 233h156l-45 -233h-156zM559 1610l45 233h156l-45 -233h-156z" />
<glyph unicode="&#x17d;" horiz-adv-x="894" d="M47 0v92l553 1182h-352v-352h-174v512h764v-93l-555 -1181h391v246h174v-406h-801zM178 1855h176l92 -237l95 237h176l-178 -331h-183z" />
<glyph unicode="&#x17e;" horiz-adv-x="659" d="M39 0v70l393 794h-211v-250h-176v410h608v-70l-395 -794h397v-160h-616zM76 1454h176l92 -237l94 237h176l-178 -332h-182z" />
<glyph unicode="&#x192;" horiz-adv-x="600" d="M-178 -430l80 410h161l-51 -240q73 0 109.5 78t36.5 196v840h-103v150h103q9 450 415 450h95l-68 -367h-162l39 197q-74 0 -112.5 -79t-38.5 -201h245v-150h-237v-809q0 -228 -110 -351.5t-328 -123.5h-74z" />
<glyph unicode="&#x2c6;" horiz-adv-x="497" d="M-20 1122l178 332h182l178 -332h-176l-94 238l-92 -238h-176z" />
<glyph unicode="&#x2c7;" horiz-adv-x="497" d="M-20 1454h176l92 -237l94 237h176l-178 -332h-182z" />
<glyph unicode="&#x2d8;" horiz-adv-x="503" d="M-10 1444h145q0 -71 31 -112.5t86 -41.5t86 41.5t31 112.5h145q0 -137 -72.5 -219t-189.5 -82t-189.5 82t-72.5 219z" />
<glyph unicode="&#x2d9;" horiz-adv-x="540" d="M168 1190l49 264h156l-49 -264h-156z" />
<glyph unicode="&#x2db;" horiz-adv-x="624" d="M217 -229q0 89 63 180t158 168l76 -119q-71 -69 -111.5 -121t-40.5 -92q0 -35 37 -35q32 0 119 72l66 -100q-109 -113 -211 -113q-57 0 -106.5 45.5t-49.5 114.5z" />
<glyph unicode="&#x2dc;" horiz-adv-x="669" d="M25 1317q41 38 92.5 64t87.5 26q44 0 137 -33q72 -26 107 -26q34 0 116 55l74 -121q-43 -37 -94.5 -63.5t-85.5 -26.5q-57 0 -140 33q-72 28 -104 28q-42 0 -119 -59z" />
<glyph unicode="&#x404;" horiz-adv-x="983" d="M84 598v61q0 159 48 304.5t133 256t211 176.5t272 66h157l-100 -512h-182l65 350q-154 -18 -260.5 -164.5t-132.5 -353.5h338v-159h-344q0 -224 109 -347.5t298 -123.5q55 0 123 10v-170q-87 -19 -170 -19q-124 0 -227.5 40.5t-178.5 118t-117 196.5t-42 270z" />
<glyph unicode="&#x406;" horiz-adv-x="604" d="M72 0v160h131v1114h-131v160h460v-160h-131v-1114h131v-160h-460z" />
<glyph unicode="&#x407;" horiz-adv-x="604" d="M72 0v160h131v1114h-131v160h460v-160h-131v-1114h131v-160h-460zM111 1532l41 219h155l-41 -219h-155zM342 1532l41 219h156l-41 -219h-156z" />
<glyph unicode="&#x410;" horiz-adv-x="1050" d="M-4 0v160h129l223 1114h-98v160h420l258 -1274h127v-160h-434v160h96l-49 270h-306l-47 -270h107v-160h-426zM391 590h248l-121 659h-8z" />
<glyph unicode="&#x411;" horiz-adv-x="1013" d="M61 0v160h132v1114h-132v160h881l-94 -484h-182l61 324h-336v-440h105q207 0 341 -99t134 -284q0 -132 -77.5 -235.5t-209 -159.5t-293.5 -56h-330zM391 162q373 18 373 287q0 112 -83 168.5t-235 56.5h-55v-512z" />
<glyph unicode="&#x412;" horiz-adv-x="1067" d="M61 0v160h132v1114h-132v160h449q92 0 171 -20.5t140.5 -61.5t97 -108t35.5 -154q0 -113 -61 -200t-168 -138q115 -34 182.5 -114t67.5 -206q0 -107 -45.5 -190t-127.5 -135.5t-191 -79.5t-240 -27h-310zM391 160q178 8 277.5 78t99.5 200q0 97 -73.5 149t-196.5 52h-107 v-479zM391 799h60q141 0 219 76.5t78 195.5q0 99 -76.5 151t-210.5 52h-70v-475z" />
<glyph unicode="&#x413;" horiz-adv-x="944" d="M61 0v160h132v1114h-132v160h863l-95 -484h-182l62 324h-318v-1114h150v-160h-480z" />
<glyph unicode="&#x414;" horiz-adv-x="1075" d="M-37 160q334 0 334 1077v37h-152v160h865v-160h-131v-1114h217l-95 -484h-182l62 324h-736v-322h-182v482zM254 160h426v1114h-215v-76q0 -97 -1.5 -167.5t-7.5 -178.5t-20.5 -194.5t-36.5 -181t-59 -175t-86 -141.5z" />
<glyph unicode="&#x415;" horiz-adv-x="1003" d="M61 0v160h132v1114h-132v160h875l-94 -484h-172l51 324h-330v-490h309v-159h-309v-465h367v246h174v-406h-871z" />
<glyph unicode="&#x416;" horiz-adv-x="1660" d="M51 0v160h146l176 557h139v57q0 103 -24.5 205.5t-76 182.5t-118.5 98v-349h-182v523q78 20 131 20q94 0 170.5 -45.5t124.5 -116.5t80.5 -163t45.5 -180t13 -173v-123h-115l-205 -653h-305zM610 0v160h121v1114h-121v160h437v-160h-117v-1114h121v-160h-441zM985 653 v123q0 134 37 255.5t104.5 216t170.5 150.5t227 56q19 0 51 -6t43 -14l-96 -484h-183l58 303q-73 -13 -131 -87t-87.5 -178t-29.5 -214v-57h139l174 -557h148v-160h-305l-207 653h-113z" />
<glyph unicode="&#x417;" horiz-adv-x="972" d="M78 932v502q192 28 362 28q90 0 169 -22.5t140 -64.5t96.5 -109t35.5 -150q0 -124 -73 -223.5t-192 -157.5q120 -31 190.5 -108t70.5 -199q0 -94 -30 -171t-80.5 -129t-119.5 -87.5t-144.5 -51.5t-156.5 -16q-84 0 -178 27v172q97 -18 156 -18q66 0 125.5 15t110 46.5 t80.5 86.5t30 128q0 96 -76.5 144.5t-204.5 48.5h-63v159h41q135 0 221 88.5t86 219.5q0 98 -77.5 155.5t-207.5 57.5q-57 0 -129 -11v-360h-182z" />
<glyph unicode="&#x418;" horiz-adv-x="1222" d="M51 1274v160h461v-160h-131v-1004h8l359 1164h413v-160h-131v-1114h131v-160h-461v160h131v1003h-8l-360 -1163h-281v1274h-131z" />
<glyph unicode="&#x419;" horiz-adv-x="1226" d="M55 1274h131v-1274h281l360 1163h9v-1003h-131v-160h460v160h-131v1114h131v160h-413l-359 -1164h-8v1004h131v160h-461v-160zM342 1769v13h166q0 -59 21.5 -87t70.5 -28t70.5 28t21.5 87h166v-13q0 -109 -69.5 -174t-188.5 -65t-188.5 65t-69.5 174z" />
<glyph unicode="&#x41a;" horiz-adv-x="1126" d="M61 0v160h132v1114h-132v160h457v-160h-127v-1114h131v-160h-461zM461 653v103q0 194 65.5 350t192.5 248t295 92q46 0 82 -8l-97 -488h-182l55 293q-110 -23 -176.5 -157t-66.5 -314v-55h135l186 -557h152v-160h-309l-218 653h-114z" />
<glyph unicode="&#x41b;" horiz-adv-x="1193" d="M12 0l88 483h187l-62 -307q234 108 234 1034v64h-152v160h836v-160h-131v-1114h131v-160h-461v160h131v1114h-192v-76q0 -93 -0.5 -151t-5 -166t-13 -181t-25 -174.5t-40 -170.5t-60.5 -144.5t-83.5 -120.5t-111.5 -74.5t-143 -29.5q-45 0 -127 14z" />
<glyph unicode="&#x41c;" horiz-adv-x="1437" d="M61 0v160h132v1114h-132v160h465l193 -846h8l186 846h463v-160h-131v-1114h131v-160h-456v160h131v1085h-9l-254 -1020h-157l-254 1020h-8v-1085h131v-160h-439z" />
<glyph unicode="&#x41d;" horiz-adv-x="1169" d="M61 0v160h132v1114h-132v160h461v-160h-131v-459h387v459h-131v160h461v-160h-131v-1114h131v-160h-461v160h131v495h-387v-495h131v-160h-461z" />
<glyph unicode="&#x41e;" d="M82 666v102q0 210 48 363t153 242t260 89t260 -89t153 -242t48 -363v-102q0 -157 -28 -283t-83.5 -218.5t-144 -143t-205.5 -50.5t-205.5 50.5t-144 143t-83.5 218.5t-28 283zM287 692q0 -553 256 -553t256 553v49q0 553 -256 553t-256 -553v-49z" />
<glyph unicode="&#x41f;" horiz-adv-x="1148" d="M61 0v160h132v1114h-132v160h1026v-160h-131v-1114h131v-160h-456v160h127v1114h-367v-1114h127v-160h-457z" />
<glyph unicode="&#x420;" horiz-adv-x="985" d="M61 0v160h132v1114h-132v160h457q129 0 230.5 -43.5t163 -133.5t61.5 -215q0 -197 -142 -326.5t-354 -129.5h-86v-426h131v-160h-461zM391 745h53q156 0 239 77.5t83 217.5q0 113 -77.5 173.5t-219.5 60.5h-78v-529z" />
<glyph unicode="&#x421;" horiz-adv-x="923" d="M84 598v61q0 155 47 299.5t131 256.5t212.5 179.5t281.5 67.5h129l-101 -512h-182l66 350q-116 -13 -204 -106.5t-131.5 -230t-43.5 -291.5v-47q0 -225 106.5 -349t290.5 -124q45 0 113 10v-170q-87 -19 -160 -19q-243 0 -399 169.5t-156 455.5z" />
<glyph unicode="&#x422;" horiz-adv-x="1005" d="M20 922v512h996l-94 -484h-183l62 324h-213v-1114h131v-160h-461v160h131v1114h-194v-352h-175z" />
<glyph unicode="&#x423;" horiz-adv-x="1017" d="M10 1274v160h434v-160h-94l228 -688h10l125 688h-115v160h430v-160h-125q-130 -647 -162 -772q-26 -100 -49.5 -170.5t-62 -142t-85 -115t-116 -70.5t-156.5 -27q-20 0 -61.5 8t-52.5 15l69 381h185l-47 -236q96 22 170 236h-82l-306 893h-137z" />
<glyph unicode="&#x424;" horiz-adv-x="1282" d="M61 739v88q0 119 41 214t108.5 152.5t149 87.5t168.5 30h15v67h-131v158h458v-158h-131v-67h15q87 0 168.5 -30t149 -87.5t108.5 -152.5t41 -214v-88q0 -119 -41 -214t-108.5 -152t-149 -87t-168.5 -30h-15v-98h131v-158h-458v158h131v98h-15q-87 0 -168.5 30t-149 87 t-108.5 152t-41 214zM266 760q0 -174 80.5 -262t196.5 -88v747q-116 0 -196.5 -88t-80.5 -262v-47zM739 410q116 0 196.5 88t80.5 262v47q0 174 -80.5 262t-196.5 88v-747z" />
<glyph unicode="&#x425;" horiz-adv-x="1093" d="M47 0v160h137l205 563l-188 551h-140v160h422v-160h-80l150 -451h8l144 451h-84v160h407v-160h-135l-191 -551l203 -563h142v-160h-426v160h75l-157 465h-9l-153 -465h82v-160h-412z" />
<glyph unicode="&#x426;" horiz-adv-x="1142" d="M61 0v160h132v1114h-132v160h457v-160h-127v-1114h357v1114h-127v160h456v-160h-131v-1114h217l-94 -484h-182l61 324h-887z" />
<glyph unicode="&#x427;" horiz-adv-x="1067" d="M0 1274v160h451v-160h-121v-438q0 -138 102 -138q69 0 140 65t104 167v344h-121v160h451v-160h-132v-1114h132v-160h-482v160h152v557q-62 -97 -144.5 -150t-171.5 -53q-105 0 -167 72t-62 219v469h-131z" />
<glyph unicode="&#x428;" horiz-adv-x="1611" d="M61 0v160h132v1114h-132v160h441v-160h-111v-1114h316v1114h-111v160h420v-160h-111v-1114h316v1114h-111v160h440v-160h-131v-1114h131v-160h-1489z" />
<glyph unicode="&#x429;" horiz-adv-x="1613" d="M61 0v160h132v1114h-132v160h441v-160h-111v-1114h316v1114h-111v160h420v-160h-111v-1114h316v1114h-111v160h440v-160h-131v-1114h215l-94 -484h-182l61 324h-1358z" />
<glyph unicode="&#x42a;" horiz-adv-x="1161" d="M20 922v512h687v-160h-132v-432h101q134 0 238.5 -42t168.5 -131t64 -214q0 -132 -76 -236.5t-206.5 -161.5t-291.5 -57h-327v160h131v1114h-182v-352h-175zM575 162q365 18 365 291q0 113 -81 171t-232 58h-52v-520z" />
<glyph unicode="&#x42b;" horiz-adv-x="1476" d="M61 0v160h132v1114h-132v160h461v-160h-131v-432h92q130 0 232.5 -42t165.5 -131t63 -214q0 -135 -78 -239.5t-210 -160t-294 -55.5h-301zM391 162q346 21 346 291q0 112 -80 170.5t-223 58.5h-43v-520zM954 0v160h131v1114h-131v160h461v-160h-131v-1114h131v-160h-461z " />
<glyph unicode="&#x42c;" horiz-adv-x="985" d="M61 0v160h132v1114h-132v160h461v-160h-131v-432h105q134 0 239.5 -42t170.5 -131t65 -214q0 -132 -77.5 -236.5t-209.5 -161.5t-293 -57h-330zM391 162q373 18 373 291q0 112 -83 170.5t-235 58.5h-55v-520z" />
<glyph unicode="&#x42d;" horiz-adv-x="968" d="M78 932v502q185 28 252 28q157 0 282 -74.5t199 -220t74 -340.5v-61q0 -157 -38 -299.5t-106.5 -252.5t-172.5 -175.5t-228 -65.5q-88 0 -182 27v172q97 -18 159 -18q139 0 232 134t121 335h-340v159h350v29q0 226 -105 349.5t-292 123.5h-23v-352h-182z" />
<glyph unicode="&#x42e;" horiz-adv-x="1572" d="M61 0v160h132v1114h-132v160h461v-160h-131v-459h197q6 196 55.5 339t149.5 225.5t243 82.5q221 0 338 -188t117 -506v-102q0 -209 -50 -363.5t-153.5 -243t-251.5 -88.5q-219 0 -332.5 184t-115.5 500h-197v-495h131v-160h-461zM786 692q0 -169 25 -290t81.5 -192 t143.5 -71q250 0 250 553v49q0 553 -250 553q-87 0 -143.5 -71t-81.5 -192t-25 -290v-49z" />
<glyph unicode="&#x42f;" horiz-adv-x="1042" d="M0 0v160h162l194 458q-127 38 -203.5 133.5t-76.5 227.5q0 135 79.5 239.5t215 160t303.5 55.5h307v-160h-131v-1114h131v-160h-461v160h131v432h-121l-225 -592h-305zM283 981q0 -112 83 -170.5t234 -58.5h51v520q-368 -18 -368 -291z" />
<glyph unicode="&#x430;" horiz-adv-x="776" d="M41 197q0 85 36 153t99 112t144 70t176 33v35q0 47 -6 86.5t-22 77t-41 63.5t-65 42t-92 16v-271h-170v430h136q216 0 326 -126.5t110 -348.5v-409h102v-160h-278v147q-43 -76 -106 -121.5t-136 -45.5q-95 0 -154 61.5t-59 155.5zM219 238q0 -39 22.5 -61.5t65.5 -22.5 q77 0 130.5 68.5t58.5 146.5v57q-118 -7 -197.5 -61.5t-79.5 -126.5z" />
<glyph unicode="&#x431;" horiz-adv-x="821" d="M72 485v263q0 104 15 191t50.5 165.5t91 136t140 97t194.5 55.5v102h162v-281h-74q-221 0 -332 -108.5t-114 -298.5h8q40 98 106 157.5t146 59.5q145 0 218 -127.5t73 -357.5v-74q0 -221 -95.5 -353t-246.5 -132q-161 0 -251.5 130.5t-90.5 374.5zM248 496 q0 -169 41 -263t125 -94t125 94t41 263v12q0 168 -41 262t-125 94q-159 0 -166 -317v-51z" />
<glyph unicode="&#x432;" horiz-adv-x="808" d="M55 0v160h103v704h-103v160h387q132 0 217.5 -62.5t85.5 -183.5q0 -149 -141 -229q156 -53 156 -211q0 -156 -120 -247t-306 -91h-279zM334 160q121 2 185.5 46t64.5 128q0 112 -168 115h-33v124q95 0 140.5 49t45.5 126q0 55 -45 85.5t-125 30.5h-65v-704z" />
<glyph unicode="&#x433;" horiz-adv-x="739" d="M66 0v160h102v704h-102v160h679l-79 -406h-162l51 246h-211v-704h102v-160h-380z" />
<glyph unicode="&#x434;" horiz-adv-x="845" d="M-10 160q103 3 149 69q93 138 99 635h-146v160h684v-160h-90v-704h191l-80 -406h-162l51 246h-530v-258h-166v418zM256 160h254v704h-131q-3 -279 -30.5 -444t-92.5 -260z" />
<glyph unicode="&#x435;" horiz-adv-x="731" d="M57 496v63q0 126 41 236t120.5 179.5t180.5 69.5q267 0 267 -458v-99h-433q3 -148 82 -242.5t232 -94.5q41 0 96 10v-160q-74 -20 -139 -20q-112 0 -199 39.5t-140.5 110t-80.5 163t-27 203.5zM236 627h264q-1 61 -5 101t-16 79.5t-36.5 58.5t-61.5 19q-60 0 -98 -67.5 t-47 -190.5z" />
<glyph unicode="&#x436;" horiz-adv-x="1232" d="M35 0h262l119 459h78v100q0 237 -92 361t-304 124h-18v-450h160v278q59 -13 90.5 -93.5t31.5 -188.5v-72h-112l-90 -358h-125v-160zM426 0v160h102v864h177v-864h102v-160h-381zM739 459v100q0 237 92 361t304 124h63l-84 -426h-162l54 256q-64 -4 -100 -87.5t-36 -196.5 v-72h113l88 -358h127v-160h-262l-121 459h-76z" />
<glyph unicode="&#x437;" horiz-adv-x="679" d="M35 614v430h178q197 0 301 -72.5t104 -199.5q0 -76 -40 -139.5t-109 -104.5q166 -50 166 -213q0 -106 -53.5 -183.5t-134 -113.5t-173.5 -36q-119 0 -178 18v160q45 -10 131 -10q119 0 174.5 37.5t55.5 119.5q0 119 -183 119h-43v125h21q96 0 143 54.5t47 133.5 q0 146 -217 146h-20v-271h-170z" />
<glyph unicode="&#x438;" horiz-adv-x="931" d="M35 864v160h278v-772h9l227 772h328v-160h-103v-704h103v-160h-279v772h-8l-228 -772h-225v864h-102z" />
<glyph unicode="&#x439;" horiz-adv-x="931" d="M35 864v160h278v-772h9l227 772h328v-160h-103v-704h103v-160h-279v772h-8l-228 -772h-225v864h-102zM186 1421v13h166q0 -59 21.5 -87t70.5 -28t71 28t22 87h165v-13q0 -109 -69.5 -174t-188.5 -65t-188.5 65t-69.5 174z" />
<glyph unicode="&#x43a;" horiz-adv-x="903" d="M55 0v160h103v704h-103v160h279v-864h102v-160h-381zM373 459v100q0 231 105.5 358t320.5 127h63l-84 -426h-162l54 256q-66 -4 -111 -89.5t-45 -194.5v-72h119l102 -358h127v-160h-262l-139 459h-88z" />
<glyph unicode="&#x43b;" horiz-adv-x="917" d="M0 -6l72 371h161l-40 -195q45 23 77 93.5t45.5 164t19 167.5t5.5 142v127h-137v160h651v-160h-94v-704h102v-160h-381v160h103v704h-103v-116q0 -70 -4 -137t-14.5 -145t-27.5 -145.5t-45 -131t-64.5 -108.5t-88.5 -72t-114 -27q-93 0 -123 12z" />
<glyph unicode="&#x43c;" horiz-adv-x="1153" d="M55 0v160h103v704h-103v160h400l127 -541h8l123 541h385v-160h-103v-704h103v-160h-279v860h-8l-168 -698h-143l-168 698h-8v-700h86v-160h-355z" />
<glyph unicode="&#x43d;" horiz-adv-x="931" d="M55 0v160h103v704h-103v160h279v-422h264v262h-102v160h381v-160h-103v-704h103v-160h-279v463h-264v-303h102v-160h-381z" />
<glyph unicode="&#x43e;" horiz-adv-x="806" d="M61 465v94q0 225 91.5 355t250.5 130t250.5 -130t91.5 -355v-94q0 -225 -91.5 -355t-250.5 -130t-250.5 130t-91.5 355zM238 477q2 -161 42.5 -249.5t122.5 -88.5q84 0 125 94t41 263v51q-7 338 -166 338q-82 0 -122.5 -88.5t-42.5 -249.5v-70z" />
<glyph unicode="&#x43f;" horiz-adv-x="915" d="M55 0v160h103v704h-103v160h805v-160h-102v-704h102v-160h-278v864h-248v-704h102v-160h-381z" />
<glyph unicode="&#x440;" horiz-adv-x="843" d="M45 -270h102v1134h-102v160h279v-133q38 71 96 112t129 41q116 0 176.5 -100t60.5 -262v-53q0 -118 -33.5 -231.5t-91 -201.5t-141.5 -142t-178 -54h-18v-270h102v-160h-381v160zM324 150h18q80 0 143 74.5t94 187t31 237.5v13q0 212 -114 212q-76 0 -121.5 -68.5 t-50.5 -150.5v-505z" />
<glyph unicode="&#x441;" horiz-adv-x="684" d="M57 475v12q0 107 34.5 207t97 178t157.5 125t207 47h96l-84 -426h-162l56 265q-62 -9 -115 -66t-82 -139.5t-29 -167.5v-31q0 -73 16.5 -131.5t50.5 -103.5t91.5 -69.5t134.5 -24.5q43 0 88 10v-160q-66 -20 -131 -20q-204 0 -315 137.5t-111 357.5z" />
<glyph unicode="&#x442;" horiz-adv-x="802" d="M10 606v418h793l-80 -406h-162l51 248h-143v-706h102v-160h-381v160h103v706h-117v-260h-166z" />
<glyph unicode="&#x443;" horiz-adv-x="792" d="M-12 864v160h274l170 -840h8l115 680h-98v160h350v-160h-94l-148 -831q-20 -114 -47.5 -194.5t-70.5 -143.5t-105.5 -94t-146.5 -31q-99 0 -129 12l73 383h162l-47 -229q55 0 89.5 66.5t57.5 197.5h-102l-195 864h-116z" />
<glyph unicode="&#x444;" horiz-adv-x="1138" d="M57 362v54q0 158 53 301.5t151.5 235t219.5 91.5v250h-102v160h278v-557q79 147 207 147q109 0 163 -99t54 -263v-53q0 -158 -53 -301.5t-151.5 -235.5t-219.5 -92v-270h103v-160h-381v160h102v417q-77 -147 -207 -147q-109 0 -163 99t-54 263zM233 383q0 -213 95 -213 q67 0 107.5 68.5t45.5 150.5v506q-74 0 -131 -71.5t-86 -179.5t-31 -230v-31zM657 150q76 0 134 75t86 187t28 237v13q0 212 -94 212q-67 0 -108 -68.5t-46 -150.5v-505z" />
<glyph unicode="&#x445;" horiz-adv-x="808" d="M18 864v160h254l125 -455h9l88 295h-74v160h332v-160h-101l-102 -342l106 -362h140v-160h-273l-129 475h-8l-96 -315h73v-160h-339v160h108l111 362l-103 342h-121z" />
<glyph unicode="&#x446;" horiz-adv-x="933" d="M55 0v160h103v704h-103v160h279v-864h248v704h-103v160h381v-160h-102v-704h192l-80 -406h-161l51 246h-705z" />
<glyph unicode="&#x447;" horiz-adv-x="888" d="M4 864v160h303v-385q0 -73 19.5 -104t68.5 -31q63 0 103 47t57 117v196h-102v160h381v-160h-103v-704h103v-160h-381v160h102v319q-41 -67 -100.5 -106t-126.5 -39q-95 0 -146 67t-51 199v264h-127z" />
<glyph unicode="&#x448;" horiz-adv-x="1257" d="M55 0v160h103v704h-103v160h279v-864h207v704h-103v160h279v-864h207v704h-103v160h381v-160h-102v-704h102v-160h-1147z" />
<glyph unicode="&#x449;" horiz-adv-x="1275" d="M55 0v160h103v704h-103v160h279v-864h207v704h-103v160h279v-864h207v704h-103v160h381v-160h-102v-704h192l-80 -406h-161l51 246h-1047z" />
<glyph unicode="&#x44a;" horiz-adv-x="897" d="M14 606v418h459v-399h90q68 0 124 -14t101 -43.5t70 -81t25 -121.5q0 -156 -125 -260.5t-305 -104.5h-258v160h102v704h-121v-258h-162zM473 160q117 6 175.5 62t58.5 136q0 63 -42 95t-102 32h-90v-325z" />
<glyph unicode="&#x44b;" horiz-adv-x="1146" d="M55 0v160h103v704h-103v160h279v-399h84q142 0 228.5 -62t86.5 -198q0 -156 -120.5 -260.5t-299.5 -104.5h-258zM334 160q115 6 169 61.5t54 136.5q0 63 -40 95t-99 32h-84v-325zM711 864v160h381v-160h-103v-704h103v-160h-279v864h-102z" />
<glyph unicode="&#x44c;" horiz-adv-x="757" d="M55 0v160h103v704h-103v160h279v-399h90q68 0 123.5 -14t100.5 -43.5t70 -81t25 -121.5q0 -156 -125 -260.5t-305 -104.5h-258zM334 160q117 6 175 62t58 136q0 63 -41.5 95t-101.5 32h-90v-325z" />
<glyph unicode="&#x44d;" horiz-adv-x="727" d="M66 614v430h159q201 0 319 -139t118 -356v-12q0 -100 -28 -197.5t-79 -178t-131 -130t-174 -49.5q-99 0 -158 18v160q45 -10 131 -10q98 0 166.5 77t89.5 195h-203v133h211q-3 131 -67 220t-184 106v-267h-170z" />
<glyph unicode="&#x44e;" horiz-adv-x="1193" d="M55 0v160h103v704h-103v160h279v-418h125q9 205 95.5 321.5t236.5 116.5q159 0 248 -129.5t89 -355.5v-94q0 -226 -89 -355.5t-248 -129.5q-158 0 -245 129.5t-87 357.5h-125v-307h102v-160h-381zM629 477q3 -338 162 -338q161 0 161 357v32q0 357 -161 357 q-159 0 -162 -338v-70z" />
<glyph unicode="&#x44f;" horiz-adv-x="843" d="M47 0v160h113l104 270q-77 18 -132.5 83t-55.5 153q0 159 121.5 258.5t308.5 99.5h282v-160h-102v-704h102v-160h-278v864h-8q-120 0 -186 -53.5t-66 -140.5q0 -63 46 -99t128 -36h37v-121h-37l-133 -414h-244z" />
<glyph unicode="&#x454;" horiz-adv-x="724" d="M57 475v12q0 144 61 270t178.5 206.5t266.5 80.5h96l-84 -426h-161l55 265q-87 -12 -154 -109.5t-79 -218.5h206v-133h-206q14 -126 89 -199t212 -73q43 0 88 10v-160q-66 -20 -131 -20q-205 0 -321 138t-116 357z" />
<glyph unicode="&#x456;" horiz-adv-x="501" d="M66 0v160h102v704h-102v160h278v-864h102v-160h-380zM168 1190l49 264h156l-49 -264h-156z" />
<glyph unicode="&#x457;" horiz-adv-x="501" d="M29 1214l41 220h155l-41 -220h-155zM66 0v160h102v704h-102v160h278v-864h102v-160h-380zM260 1214l41 220h156l-41 -220h-156z" />
<glyph unicode="&#x490;" horiz-adv-x="827" d="M61 0v160h132v1114h-132v160h594v204h183v-364h-447v-1114h150v-160h-480z" />
<glyph unicode="&#x491;" horiz-adv-x="638" d="M66 0v160h102v704h-102v160h407v164h162v-324h-291v-704h102v-160h-380z" />
<glyph unicode="&#x2000;" horiz-adv-x="927" />
<glyph unicode="&#x2001;" horiz-adv-x="1855" />
<glyph unicode="&#x2002;" horiz-adv-x="927" />
<glyph unicode="&#x2003;" horiz-adv-x="1855" />
<glyph unicode="&#x2004;" horiz-adv-x="618" />
<glyph unicode="&#x2005;" horiz-adv-x="463" />
<glyph unicode="&#x2006;" horiz-adv-x="309" />
<glyph unicode="&#x2007;" horiz-adv-x="309" />
<glyph unicode="&#x2008;" horiz-adv-x="231" />
<glyph unicode="&#x2009;" horiz-adv-x="371" />
<glyph unicode="&#x200a;" horiz-adv-x="103" />
<glyph unicode="&#x2010;" horiz-adv-x="565" d="M72 467v180h422v-180h-422z" />
<glyph unicode="&#x2011;" horiz-adv-x="565" d="M72 467v180h422v-180h-422z" />
<glyph unicode="&#x2012;" horiz-adv-x="565" d="M72 467v180h422v-180h-422z" />
<glyph unicode="&#x2013;" horiz-adv-x="923" d="M51 487v160h821v-160h-821z" />
<glyph unicode="&#x2014;" horiz-adv-x="1685" d="M51 487v160h1583v-160h-1583z" />
<glyph unicode="&#x2018;" horiz-adv-x="247" d="M10 1020l92 426h156l-72 -426h-176z" />
<glyph unicode="&#x2019;" horiz-adv-x="247" d="M-10 1020l71 426h177l-93 -426h-155z" />
<glyph unicode="&#x201a;" horiz-adv-x="278" d="M0 -258l72 426h176l-92 -426h-156z" />
<glyph unicode="&#x201c;" horiz-adv-x="516" d="M10 1020l92 426h156l-72 -426h-176zM279 1020l92 426h155l-71 -426h-176z" />
<glyph unicode="&#x201d;" horiz-adv-x="516" d="M-10 1020l71 426h177l-93 -426h-155zM258 1020l72 426h176l-92 -426h-156z" />
<glyph unicode="&#x201e;" horiz-adv-x="546" d="M0 -258l72 426h176l-92 -426h-156zM268 -258l72 426h176l-92 -426h-156z" />
<glyph unicode="&#x2022;" horiz-adv-x="882" d="M246 612q0 87 52.5 139t141.5 52t143 -52.5t54 -138.5q0 -84 -57.5 -137t-139.5 -53t-138 53t-56 137z" />
<glyph unicode="&#x2026;" horiz-adv-x="794" d="M61 0v168h177v-168h-177zM319 0v168h177v-168h-177zM578 0v168h176v-168h-176z" />
<glyph unicode="&#x202f;" horiz-adv-x="371" />
<glyph unicode="&#x205f;" horiz-adv-x="463" />
<glyph unicode="&#x20ac;" horiz-adv-x="960" d="M41 440v160h80v105h-80v159h100q27 125 83 232t137.5 189.5t192.5 129.5t239 47h129l-97 -491h-182l62 329q-91 -10 -166.5 -71.5t-123.5 -155t-71 -209.5h436l-30 -159h-424v-105h403l-31 -160h-350q38 -140 135.5 -214t239.5 -74q45 0 113 10v-170q-87 -19 -160 -19 q-207 0 -353.5 124t-187.5 343h-94z" />
<glyph unicode="&#x25fc;" horiz-adv-x="1024" d="M0 0v1024h1024v-1024h-1024z" />
<glyph horiz-adv-x="409" />
</font>
</defs>
</svg>
